<svg width="180" height="72" fill="none" xmlns="http://www.w3.org/2000/svg"><g fill="#0F0F10"><path d="M51.205 30.303V43.3a.796.796 0 0 1-.79.794H46.33a.79.79 0 0 1-.79-.794V22.16a.796.796 0 0 1 .79-.794h3.78a.789.789 0 0 1 .79.794v2.977s1.352-4.246 5.361-4.246c0 0 3.966-.482 5.579 3.94 0 0 1.35-3.94 5.448-3.94 0 0 6.092-.364 6.092 5.969l.047 3.487v12.997a.796.796 0 0 1-.791.794h-4.085a.79.79 0 0 1-.79-.794l-.038-14.179c.116-3.21-2.47-2.977-2.47-2.977-3.254.059-2.94 4.16-2.94 4.16v12.996a.796.796 0 0 1-.791.794h-4.084a.79.79 0 0 1-.791-.794V29.486s.239-3.327-2.667-3.327c0 0-2.876-.38-2.775 4.144Zm105.282-.038V43.26a.793.793 0 0 1-.791.794l-4.247.083a.793.793 0 0 1-.791-.794V29.486s.239-3.327-2.667-3.327c0 0-2.775-.138-2.775 5.08v12.06a.793.793 0 0 1-.791.795h-4.084a.793.793 0 0 1-.791-.794V22.16a.793.793 0 0 1 .791-.794h3.779a.793.793 0 0 1 .791.794v2.977s1.351-4.246 5.361-4.246c0 0 4.295-.655 5.742 3.858 0 0 .473.93.473 5.516Zm-29.49-9.462c-5.223 0-9.458 4.422-9.458 11.864 0 6.553 3.269 11.865 9.458 11.865 5.84 0 9.457-5.312 9.457-11.864 0-7.312-4.234-11.865-9.457-11.865Zm3.296 12.127c0 2.802-.348 4.29-.348 4.29-.496 2.963-2.637 2.967-2.952 2.951-.341.014-2.5-.017-2.946-2.95 0 0-.349-1.489-.349-4.29v-.468c0-2.802.349-4.29.349-4.29.446-2.933 2.605-2.964 2.946-2.95.315-.017 2.456-.013 2.952 2.95 0 0 .348 1.488.348 4.29v.467Zm-15.124-7.822v-3.033a.79.79 0 0 0-.791-.794h-13.501a.79.79 0 0 0-.79.794v3.01a.792.792 0 0 0 .79.794h7.042l-8.335 12.146s-.328.493-.318 1.037v3.694s-.054 1.267 1.376.532c0 0 2.541-1.542 6.8-1.542 0 0 4.207-.052 7.012 1.675 0 0 1.164.531 1.164-.638v-3.216s.106-.85-1.006-1.382c0 0-3.228-1.78-7.461-1.489l8.018-11.588ZM42.387 40.314l-1.279-1.955c-.406-.73-.377-1.547-.377-1.547v-9.019c.174-7.793-8.427-7.121-8.427-7.121-7.645 0-8.774 5.977-8.774 5.977-.32 1.201.608 1.23.608 1.23l3.736.381s.637.146.869-.615c0 0 .492-2.608 3.243-2.608 2.994 0 2.963 2.581 2.963 2.581v2.16c-5.977.201-8.746 1.868-8.746 1.868-3.69 2.101-3.458 6.275-3.458 6.275 0 6.8 6.45 6.508 6.45 6.508 4.126 0 6.567-3.035 6.567-3.035.726 1.285 2.063 2.51 2.063 2.51.669.728 1.366.117 1.366.117l3.022-2.597c.668-.497.174-1.11.174-1.11Zm-11.178-.084c-1.94 0-2.662-1.937-2.34-3.841.323-1.904 1.998-3.4 6.08-3.357v1.158c.145 5.057-2.125 6.04-3.74 6.04Zm65.454.084-1.278-1.955c-.407-.73-.379-1.547-.379-1.547v-9.019c.175-7.793-8.426-7.121-8.426-7.121-7.645 0-8.775 5.977-8.775 5.977-.318 1.201.608 1.23.608 1.23l3.736.381s.637.146.87-.615c0 0 .491-2.608 3.243-2.608 2.993 0 2.962 2.581 2.962 2.581v2.16c-5.976.201-8.745 1.868-8.745 1.868-3.69 2.101-3.458 6.275-3.458 6.275 0 6.8 6.45 6.508 6.45 6.508 4.126 0 6.567-3.035 6.567-3.035.726 1.285 2.062 2.51 2.062 2.51.67.728 1.366.117 1.366.117l3.022-2.597c.668-.497.175-1.11.175-1.11Zm-11.178-.084c-1.941 0-2.662-1.937-2.34-3.841.322-1.904 1.997-3.4 6.08-3.357v1.158c.144 5.057-2.124 6.04-3.74 6.04Z" fill-opacity=".64"/><g fill-opacity=".24"><path d="M106.947 57.384s-.342.597.078.73c0 0 .474.186 1.066-.365 0 0 4.312-3.784 4.416-10.674 0 0 .032-.86-.312-1.096 0 0-1.351-1.2-6.209-.836 0 0-4.235.288-6.547 2.35 0 0-.208.182-.208.417 0 0-.05.506 1.221.287 0 0 4.235-.6 6.755-.287 0 0 1.299.156 1.663.6 0 0 .598.496.285 2.14 0 0-.857 4.176-2.208 6.734Z"/><path d="M106.093 50.773s.633.823-.388 1.533c0 0-10.902 8.76-29.207 8.76 0 0-18.843.933-34.576-13.426 0 0-.552-.487-.21-.939 0 0 .307-.416 1.1.036 0 0 14.8 9.265 34.238 9.265 0 0 13.511.525 27.371-5.43 0 0 1.104-.574 1.672.201Z"/></g></g></svg>