<svg width="195" height="96" fill="none" xmlns="http://www.w3.org/2000/svg"><path d="M33.052 69.7 21.854 50.304a4.906 4.906 0 0 1 0-4.905L33.052 26a4.905 4.905 0 0 1 4.25-2.453h22.397A4.905 4.905 0 0 1 63.947 26l11.199 19.397a4.906 4.906 0 0 1 0 4.906L63.947 69.7a4.906 4.906 0 0 1-4.248 2.452H37.3a4.906 4.906 0 0 1-4.249-2.452Z" fill="#4A43CE"/><path opacity=".07" d="m59.587 59.46-9.433-9.433-.195-.706.706.19 9.316 9.316-.394.633Z" fill="#0F0F10" stroke="#0F0F10" stroke-width="19.045"/><path d="M48.5 37.955c-5.465 0-9.895 4.43-9.895 9.896 0 5.465 4.43 9.895 9.895 9.895s9.895-4.43 9.895-9.895-4.43-9.896-9.895-9.896Zm0 17.404a7.509 7.509 0 1 1 0-15.017 7.509 7.509 0 0 1 0 15.017Z" fill="#F3EFEE"/><path d="M43.803 47.469v3.076a5.457 5.457 0 0 0 1.869 1.909v-4.985h-1.869Zm3.705-2.593v8.281c.318.059.643.094.977.094a5.4 5.4 0 0 0 .893-.08v-8.295h-1.87Zm3.879 3.871V52.4a5.455 5.455 0 0 0 1.87-2.005v-1.648h-1.87Zm4.234 5.2-1.025 1.025a.464.464 0 0 0 0 .656l3.888 3.887a.465.465 0 0 0 .656 0l1.025-1.024a.466.466 0 0 0 0-.656l-3.889-3.889a.465.465 0 0 0-.655 0Z" fill="#F3EFEE"/><path d="M94.564 38.96h6.12c2.064 0 3.608.376 4.632 1.128 1.04.736 1.56 1.896 1.56 3.48 0 .72-.152 1.352-.456 1.896-.304.544-.752.976-1.344 1.296-.576.304-1.264.464-2.064.48l-.024-.096c1.44.032 2.568.424 3.384 1.176.816.752 1.224 1.752 1.224 3 0 1.536-.52 2.704-1.56 3.504-1.024.784-2.504 1.176-4.44 1.176h-7.032V38.96Zm6.96 14.712c1.088 0 1.928-.224 2.52-.672.592-.448.888-1.088.888-1.92 0-.832-.296-1.48-.888-1.944-.592-.464-1.432-.696-2.52-.696h-4.368v5.232h4.368Zm-.888-7.44c1.136 0 2.016-.216 2.64-.648.624-.432.936-1.04.936-1.824 0-.832-.304-1.448-.912-1.848-.592-.416-1.48-.624-2.664-.624h-3.48v4.944h3.48Zm9.444-3h2.544V56h-2.544V43.232Zm-.048-4.392h2.664v2.544h-2.664V38.84Zm10.653 21.048c-.992 0-1.88-.152-2.664-.456-.768-.304-1.4-.736-1.896-1.296a4.277 4.277 0 0 1-1.008-1.92l2.64-.168c.176.576.488 1.008.936 1.296.464.288 1.128.432 1.992.432 1.072 0 1.88-.224 2.424-.672.56-.448.84-1.128.84-2.04v-1.848c-.32.656-.816 1.176-1.488 1.56-.656.384-1.4.576-2.232.576-1.056 0-2-.256-2.832-.768-.832-.528-1.488-1.256-1.968-2.184-.464-.944-.696-2.024-.696-3.24 0-1.216.232-2.288.696-3.216.464-.944 1.104-1.68 1.92-2.208.816-.528 1.752-.792 2.808-.792.896 0 1.688.208 2.376.624.704.4 1.208.96 1.512 1.68v-2.016h2.472v11.76c0 1.552-.52 2.752-1.56 3.6-1.04.864-2.464 1.296-4.272 1.296Zm-.048-6.696c.672 0 1.256-.16 1.752-.48.496-.336.88-.808 1.152-1.416.288-.608.432-1.328.432-2.16 0-.816-.136-1.528-.408-2.136-.256-.608-.64-1.072-1.152-1.392-.512-.336-1.104-.504-1.776-.504-1.008 0-1.808.368-2.4 1.104-.576.72-.864 1.696-.864 2.928 0 1.248.296 2.24.888 2.976.592.72 1.384 1.08 2.376 1.08Zm18.921 2.64c-.832.368-1.832.552-3 .552-1.6 0-3-.384-4.2-1.152-1.184-.784-2.096-1.848-2.736-3.192-.624-1.344-.936-2.856-.936-4.536 0-1.696.304-3.216.912-4.56.624-1.36 1.528-2.424 2.712-3.192 1.2-.784 2.616-1.176 4.248-1.176 1.664 0 3.088.392 4.272 1.176 1.2.768 2.104 1.832 2.712 3.192.608 1.344.912 2.864.912 4.56 0 1.568-.28 2.992-.84 4.272-.544 1.28-1.328 2.32-2.352 3.12l2.16 2.712h-2.496l-1.368-1.776Zm-3-1.824c.656 0 1.144-.072 1.464-.216l-2.424-3.048h2.472l1.632 2.16c.688-.576 1.2-1.312 1.536-2.208.352-.896.528-1.96.528-3.192 0-1.232-.192-2.336-.576-3.312-.384-.992-.968-1.776-1.752-2.352-.784-.592-1.744-.888-2.88-.888-1.12 0-2.072.296-2.856.888-.768.576-1.352 1.36-1.752 2.352-.384.976-.576 2.08-.576 3.312 0 1.216.192 2.32.576 3.312.4.976.992 1.752 1.776 2.328.784.576 1.728.864 2.832.864Zm14.281 2.28c-1.296 0-2.32-.424-3.072-1.272-.752-.864-1.128-2.056-1.128-3.576v-8.208h2.544v7.56c0 1.152.2 2 .6 2.544.4.544 1.008.816 1.824.816.928 0 1.648-.296 2.16-.888.528-.608.792-1.456.792-2.544v-7.488h2.544V56h-2.376l-.048-3.336.36.144c-.224 1.12-.696 1.984-1.416 2.592-.72.592-1.648.888-2.784.888Zm14.118 0c-1.216 0-2.28-.272-3.192-.816-.912-.544-1.616-1.32-2.112-2.328-.496-1.008-.744-2.184-.744-3.528 0-1.328.248-2.496.744-3.504.496-1.024 1.192-1.808 2.088-2.352.896-.544 1.944-.816 3.144-.816 1.168 0 2.192.272 3.072.816.88.528 1.56 1.304 2.04 2.328.496 1.008.744 2.216.744 3.624v.648h-9.168c.048 1.216.368 2.144.96 2.784.608.64 1.424.96 2.448.96.752 0 1.376-.168 1.872-.504.496-.336.848-.816 1.056-1.44l2.64.168c-.336 1.216-1.008 2.184-2.016 2.904-.992.704-2.184 1.056-3.576 1.056Zm3.072-7.848c-.08-1.104-.4-1.936-.96-2.496-.544-.56-1.272-.84-2.184-.84-.912 0-1.664.288-2.256.864-.576.576-.928 1.4-1.056 2.472h6.456Zm4.709-5.208h2.328l.096 3.384-.216-.072c.176-1.136.528-1.968 1.056-2.496.528-.544 1.256-.816 2.184-.816h1.224v2.28h-1.224c-.656 0-1.2.112-1.632.336a2.144 2.144 0 0 0-.96.96c-.208.432-.312.984-.312 1.656V56h-2.544V43.232Zm9.539 14.28h1.536c.416 0 .728-.064.936-.192.224-.128.392-.344.504-.648l.408-1.056h-.792l-4.608-12.384h2.688l3.504 10.032 3.36-10.032h2.688l-5.088 14.256c-.256.736-.64 1.272-1.152 1.608-.496.336-1.184.504-2.064.504h-1.92v-2.088Z" fill="#4A43CE"/></svg>