<svg width="24" height="32" viewBox="0 0 24 32" fill="none" xmlns="http://www.w3.org/2000/svg">
<g id="Frame 2">
<path id="Vector 2" d="M6.99538 8.92308C9.48102 5.07692 9.55412 0 9.55412 0C9.55412 0 14.0137 4.61538 11.7473 10.6923C9.88007 15.6992 5.96736 17.8975 4.87527 23.5385C4.07109 27.6923 6.62984 32 6.62984 32C6.62984 32 -1.33883 30.3846 0.196418 20.6154C1.06587 15.0828 4.13465 13.3496 6.99538 8.92308Z" fill="white"/>
<path id="Vector 3" d="M14.0136 13.6923C15.9314 10.3483 15.9875 6 15.9875 6C15.9875 6 20.0471 9.84615 18.0345 15.2308C16.514 19.2989 13.7212 20.5385 12.1859 24.8462C10.9516 28.3094 11.6011 32 11.6011 32C11.6011 32 7.38348 29.2308 8.09193 23.5385C8.427 20.8462 11.4549 18.1538 14.0136 13.6923Z" fill="white"/>
<path id="Vector 4" d="M20.3741 18.0005C21.8314 15.4281 21.8362 12.1543 21.8362 12.1543C21.8362 12.1543 24.7605 15.0005 23.8101 20.0005C23.3568 22.3851 21.1644 24.0811 18.985 26.7697C16.8649 29.3851 16.1338 32.0005 16.1338 32.0005C16.1338 32.0005 13.4289 30.6158 15.1103 25.6158C15.7724 23.6472 18.4297 21.4324 20.3741 18.0005Z" fill="white"/>
</g>
</svg>
