<svg width="377" height="572" viewBox="0 0 377 572" fill="none" xmlns="http://www.w3.org/2000/svg">
<g opacity="0.88">
<path d="M73.0423 159.5C117.473 90.75 118.78 0 118.78 0C118.78 0 198.494 82.5 157.984 191.125C124.606 280.623 54.6666 319.917 35.1455 420.75C20.7708 495 66.5084 572 66.5084 572C66.5084 572 -75.9316 543.125 -48.489 368.5C-32.9476 269.606 21.9069 238.624 73.0423 159.5Z" fill="#0F0F10" fill-opacity="0.04"/>
<path d="M198.495 244.75C232.776 184.976 233.778 107.25 233.778 107.25C233.778 107.25 306.343 176 270.368 272.25C243.189 344.967 193.267 367.125 165.825 444.125C143.762 506.03 155.371 572 155.371 572C155.371 572 79.9813 522.5 92.6447 420.75C98.6341 372.625 152.757 324.5 198.495 244.75Z" fill="#0F0F10" fill-opacity="0.04"/>
<path d="M312.184 321.75C338.234 275.77 338.32 217.25 338.32 217.25C338.32 217.25 390.591 268.125 373.603 357.5C365.501 400.125 326.312 430.442 287.355 478.5C249.458 525.25 236.39 572 236.39 572C236.39 572 188.039 547.25 218.095 457.875C229.929 422.685 277.428 383.096 312.184 321.75Z" fill="#0F0F10" fill-opacity="0.04"/>
</g>
</svg>
