<svg width="180" height="72" fill="none" xmlns="http://www.w3.org/2000/svg"><g fill="#0F0F10" fill-opacity=".64"><path d="M52.376 24.155c-7.254 0-13.299 3.137-13.299 12.603 0 7.499 4.065 12.22 13.486 12.22 11.09 0 11.8-7.446 11.8-7.446H58.99s-1.152 4.01-6.755 4.01c-4.563 0-7.845-3.143-7.845-7.547h20.536V35.23c0-4.357-2.714-11.075-12.55-11.075Zm-.188 3.533c4.344 0 7.305 2.713 7.305 6.779H44.51c0-4.317 3.865-6.78 7.68-6.78Z"/><path d="M64.922 14.99v29.235c0 1.66-.116 3.99-.116 3.99h5.125s.184-1.673.184-3.203c0 0 2.532 4.039 9.417 4.039 7.25 0 12.175-5.132 12.175-12.484 0-6.84-4.523-12.34-12.163-12.34-7.154 0-9.377 3.938-9.377 3.938V14.989h-5.245Zm13.3 12.853c4.922 0 8.054 3.725 8.054 8.724 0 5.36-3.617 8.867-8.02 8.867-5.254 0-8.089-4.183-8.089-8.82 0-4.32 2.543-8.771 8.054-8.771Z"/><path d="M104.443 24.155c-10.913 0-11.613 6.092-11.613 7.066h5.432s.284-3.557 5.806-3.557c3.588 0 6.368 1.675 6.368 4.893v1.146h-6.368c-8.454 0-12.924 2.521-12.924 7.638 0 5.036 4.13 7.775 9.711 7.775 7.606 0 10.056-4.284 10.056-4.284 0 1.704.129 3.383.129 3.383h4.828s-.187-2.081-.187-3.413v-11.51c0-7.549-5.971-9.137-11.238-9.137Zm5.993 12.985v1.528c0 1.992-1.206 6.946-8.305 6.946-3.888 0-5.555-1.979-5.555-4.273 0-4.174 5.613-4.201 13.86-4.201Z"/><path d="M112.756 25.11h6.111l8.77 17.913 8.749-17.913h5.536L125.985 57h-5.807l4.599-8.89-12.021-23Z"/></g></svg>