<svg width="180" height="72" fill="none" xmlns="http://www.w3.org/2000/svg"><g fill="#0F0F10"><path d="m86.95 35.626-3.45-4.663-4.312-5.848c-.895-1.206-2.616-1.476-3.85-.602h-.063a2.673 2.673 0 0 0-.615 3.775l5.39 7.285-5.39 7.295a2.684 2.684 0 0 0 .604 3.786h.064c1.233.874 2.955.604 3.85-.602l3.233-4.294 4.539-6.132Z" fill-opacity=".24"/><path d="M91.748 24.555h-.066c-1.232-.874-2.953-.604-3.848.603l-2.943 3.923 3.504 4.662 3.956-5.414a2.674 2.674 0 0 0-.614-3.774m.614 18.367-3.956-5.414-3.461 4.662 2.944 3.977c.893 1.206 2.615 1.475 3.848.602h.064a2.673 2.673 0 0 0 .615-3.775m53.601-14.073h7.471c1.218-.006 2.204-.973 2.211-2.168V24.27h-9.703c-3.845.074-6.923 3.153-6.922 6.925.018 3.716 3.101 6.716 6.889 6.704h3.051a2.26 2.26 0 0 1 1.484.694c.387.407.603.943.602 1.5 0 1.155-.91 2.114-2.086 2.194h-9.702v2.464c.005 1.195.991 2.162 2.209 2.167h7.546c3.854-.063 6.944-3.146 6.944-6.926-.012-3.697-3.066-6.691-6.836-6.703h-3.104a2.26 2.26 0 0 1-1.484-.694 2.174 2.174 0 0 1-.603-1.5c0-1.156.911-2.114 2.087-2.194m-9.347-4.61h-2.608c-1.191 0-2.157.947-2.157 2.115v13.449c0 1.935-1.358 3.172-3.697 3.172h-1.079c-2.339 0-3.697-1.29-3.697-3.172V24.29h-2.631c-1.191 0-2.156.947-2.156 2.114v14.211c0 3.986 2.792 6.64 7.622 6.64h2.793c4.828 0 7.621-2.654 7.621-6.64l-.011-16.325ZM107.8 43.281h-4.086c-1.191 0-2.156-.947-2.156-2.115v-3.807h6.242c1.66 0 3.007 1.321 3.007 2.951 0 1.63-1.347 2.95-3.007 2.95m-6.22-15.279h5.551c1.489 0 2.696 1.183 2.696 2.643 0 1.46-1.207 2.643-2.696 2.643h-3.643a1.935 1.935 0 0 1-1.346-.55 1.857 1.857 0 0 1-.562-1.32V27.98Zm12.548 7.814a13.463 13.463 0 0 0-.582-.465c.552-.6.976-1.301 1.247-2.064.27-.763.381-1.571.326-2.377 0-4.135-2.727-6.578-6.942-6.578h-9.11c-1.218.007-2.204.974-2.21 2.169v18.302c.006 1.195.992 2.162 2.21 2.168h10.145c4.215 0 6.76-2.41 6.76-6.545a6.152 6.152 0 0 0-.443-2.493 6.247 6.247 0 0 0-1.412-2.117m-46.432-4.96h-3.698V26.48c.007-1.202.997-2.173 2.221-2.18h1.477c1.224.007 2.215.978 2.22 2.18v2.177c-.005 1.202-.996 2.173-2.22 2.178Zm2.22 16.126h-5.918V35.129c.007-1.2.997-2.172 2.221-2.179h3.698v14.011Zm-18.067-4.664a1.097 1.097 0 0 1-.763-.309 1.054 1.054 0 0 1-.316-.747V26.49c0-.29-.057-.576-.17-.843a2.185 2.185 0 0 0-.49-.713 2.276 2.276 0 0 0-1.592-.634h-3.72v20.47c0 1.21 1 2.19 2.232 2.19h12.138a2.27 2.27 0 0 0 1.579-.641 2.154 2.154 0 0 0 .654-1.548v-2.475h-9.552ZM25.22 24.301c-1.222 0-2.215.969-2.22 2.168V46.96h5.907v-8.904h8.377c.292 0 .58-.056.85-.166.27-.11.515-.27.72-.472a2.14 2.14 0 0 0 .65-1.54v-2.453H28.908v-3.405a1.04 1.04 0 0 1 .317-.748 1.08 1.08 0 0 1 .762-.309h10.036c1.226 0 2.221-.975 2.221-2.178V24.3H25.22Z" fill-opacity=".64"/></g></svg>