<svg width="180" height="72" fill="none" xmlns="http://www.w3.org/2000/svg"><g fill="#0F0F10" fill-opacity=".64"><path d="M29.371 35.997c0-3.424 2.786-6.201 6.224-6.201 3.437 0 6.224 2.776 6.224 6.201 0 3.427-2.786 6.203-6.223 6.203-3.438 0-6.225-2.779-6.225-6.203Z"/><path d="M35.593 19.461C26.43 19.461 19 26.865 19 35.998c0 6.856 4.154 12.709 10.186 15.255a3.106 3.106 0 0 0 3.948-4.315 3.098 3.098 0 0 0-1.546-1.404v-.002c-3.738-1.561-6.366-5.24-6.366-9.534 0-5.709 4.643-10.337 10.372-10.337 5.73 0 10.373 4.628 10.373 10.337 0 4.293-2.627 7.973-6.367 9.533v.003a3.098 3.098 0 0 0 1.199 5.959c.412-.003.82-.084 1.201-.24 6.032-2.548 10.187-8.401 10.187-15.256 0-9.134-7.43-16.538-16.594-16.538M100.335 34.162c0-2.991-2.059-5.215-5.268-5.215-3.212 0-5.27 2.225-5.27 5.217 0 2.989 2.059 5.217 5.27 5.217 3.21 0 5.268-2.228 5.268-5.219Zm-15.703.002c0-5.495 4.362-9.739 10.435-9.739 6.106 0 10.433 4.244 10.433 9.739 0 5.494-4.327 9.736-10.433 9.736-6.072 0-10.435-4.242-10.435-9.736Zm19.095 13.716h2.791c1.501 0 2.025-.558 2.025-1.878v-21.57h5.164V46.07c0 4.557-1.849 6.504-6.769 6.504h-3.212v-4.695h.001ZM76.353 35.169c0 2.277-2.318 4.095-5.268 4.095-3.335 0-5.408-1.96-5.408-5.214 0-3.01 2.212-5.075 5.619-5.075 2.704 0 5.057 1.89 5.057 4.024v2.17Zm.211-10.75v2.175h-.071c-1.334-1.399-3.546-2.17-6.18-2.17-5.654 0-9.834 4.2-9.834 9.625 0 5.635 4.285 9.765 10.01 9.765 2.562 0 4.705-.806 6.005-2.241h.071v1.876c0 2.52-2.178 4.374-5.058 4.374-2.904 0-4.594-.816-6.061-2.214l-3.363 3.225c2.253 2.383 5.65 3.739 9.53 3.739 5.9 0 9.937-3.945 9.937-9.194v-18.96h-4.986Zm50.34 4.179c2.756 0 4.676 1.426 4.92 3.583h-9.911c.28-2.157 2.2-3.583 4.991-3.583Zm.533 11.129c-3.095 0-5.529-1.994-5.593-3.93h15.005v-1.46c0-5.53-3.839-9.912-10.05-9.912-5.862 0-10.05 4.105-10.05 9.774 0 5.842 4.417 9.702 10.91 9.702 3.978 0 6.831-1.901 8.319-3.721l-3.5-2.445c-1.556 1.448-2.97 1.992-5.041 1.992Zm12.455-20.316h4.985l.027 12.77h.068l8.346-7.8H160l-8.649 8.16 8.615 11.344h-5.967l-5.916-8.199h-.068l-3.138 2.963v5.25h-4.985V19.411Z"/></g></svg>