<svg xmlns="http://www.w3.org/2000/svg" width="24" fill="currentColor" viewBox="1.77 4.66 24.89 18.67"><path d="M25.418 4.667a1.556 1.556 0 0 0-.32 0H3.322a1.55 1.55 0 0 0-.412.062l11.239 11.192 11.27-11.254Z"></path><path d="M26.569 5.748 15.244 17.026a1.556 1.556 0 0 1-2.193 0L1.828 5.833a1.556 1.556 0 0 0-.055.39v15.555a1.555 1.555 0 0 0 1.556 1.555h21.777a1.556 1.556 0 0 0 1.556-1.555V6.222a1.557 1.557 0 0 0-.093-.474ZM4.394 21.778h-1.08v-1.112l5.654-5.608 1.096 1.096-5.67 5.624Zm20.697 0h-1.089l-5.67-5.623 1.097-1.097 5.654 5.608.008 1.112Z"></path></svg>