<svg width="208" height="96" fill="none" xmlns="http://www.w3.org/2000/svg"><g clip-path="url(#a)"><path d="M75.268 29.334c-.864.028-.59.278-2.458.739-1.885.466-4.188.323-6.218 1.178-6.06 2.552-7.276 11.273-12.785 14.397-4.118 2.335-8.273 2.521-12.008 3.697-2.455.773-5.14 2.358-7.364 4.282-1.726 1.494-1.771 2.808-3.575 4.682-1.93 2.004-7.668.034-10.27 3.102.839.85 1.206 1.089 2.857.868-.342.65-2.357 1.198-1.962 2.156.415 1.007 5.286 1.689 9.715-.995 2.062-1.25 3.705-3.053 6.917-3.483 4.157-.556 8.945.357 13.757 1.054-.714 2.136-2.146 3.556-3.294 5.257-.355.385.714.428 1.934.195 2.194-.544 3.774-.983 5.43-1.95 2.034-1.19 2.343-4.237 4.839-4.897 1.39 2.146 5.172 2.653 7.52.936-2.06-.585-2.63-4.986-1.934-6.925.658-1.836 1.309-4.772 1.972-7.199.712-2.606.974-5.89 1.836-7.218 1.296-1.997 2.729-2.683 3.972-3.809 1.244-1.126 2.382-2.222 2.345-4.8-.012-.83-.44-1.292-1.226-1.267Z" fill="#4A43CE"/><path d="M22.38 64.25c3.153.454 5.071 0 7.604-1.102 2.154-.938 4.235-2.872 6.78-3.693 3.737-1.203 7.835.002 11.83.242.973.06 1.94.06 2.894-.044 1.488-.919 1.457-4.354 2.906-4.669-.043 4.82-2.011 7.707-4.069 10.503 4.337-.769 6.933-3.287 8.686-6.652.532-1.02.986-2.117 1.388-3.267.62.478.269 1.934.581 2.723 2.988-1.671 4.698-5.484 5.831-9.341 1.31-4.464 1.847-8.984 2.693-10.304.825-1.29 2.109-2.084 3.28-2.91 1.333-.938 2.52-1.915 2.726-3.703-1.405-.13-1.73-.457-1.937-1.168-.703.398-1.35.483-2.08.505-.634.02-1.331-.009-2.182.079-7.034.725-7.928 8.51-12.437 12.923a10.58 10.58 0 0 1-1.057.9c-1.58 1.182-3.516 2.026-5.298 2.71-2.883 1.106-5.625 1.185-8.33 2.14-1.986.7-4.004 1.717-5.635 2.838-.394.27-.776.555-1.146.857-.957.786-1.585 1.659-2.193 2.556-.627.925-1.232 1.877-2.155 2.785-1.494 1.474-7.08.43-9.046 1.797-.22.152-.393.334-.512.553 1.073.49 1.79.19 3.024.327.162 1.176-2.547 1.874-2.146 2.416Zm42.617-8.47c.084 1.349.864 4.025 1.553 4.676-1.349.329-3.672-.215-4.268-1.17.306-1.38 1.9-2.64 2.715-3.507Z" fill="#F3EFEE"/><path d="M66.973 34.37c.996.868 3.085.171 2.712-1.556-1.547-.129-2.444.399-2.712 1.556Zm6.942-2.019c-.264.558-.772 1.277-.772 2.697-.002.244-.184.411-.187.035.014-1.388.38-1.987.768-2.776.18-.323.29-.19.191.044Z" fill="#4A43CE"/><path d="M73.648 32.142c-.312.532-1.064 1.503-1.189 2.918-.023.242-.22.392-.19.017.136-1.38.737-2.245 1.194-2.996.207-.306.304-.163.186.061Zm-.243-.278c-.356.503-1.514 1.67-1.756 3.069-.043.24-.252.373-.19.001.25-1.364 1.248-2.437 1.766-3.147.232-.287.317-.137.18.077Zm-.217-.31c-.422.448-1.803 1.934-2.238 3.285-.077.231-.302.334-.19-.025.44-1.316 1.649-2.733 2.26-3.362.27-.252.333-.092.168.101Z" fill="#4A43CE"/></g><path d="M94.564 38.96h3.552l5.064 13.992 5.064-13.992h3.552V56h-2.592V43.52l-4.584 12.456h-2.88L97.156 43.52V56h-2.592V38.96Zm23.992 17.328c-1.328 0-2.392-.304-3.192-.912-.784-.624-1.176-1.48-1.176-2.568s.328-1.944.984-2.568c.656-.624 1.688-1.072 3.096-1.344l4.392-.84c0-.992-.232-1.728-.696-2.208-.448-.496-1.128-.744-2.04-.744-.8 0-1.44.184-1.92.552-.48.352-.8.88-.96 1.584l-2.64-.168c.24-1.296.84-2.304 1.8-3.024.976-.736 2.216-1.104 3.72-1.104 1.712 0 3.016.456 3.912 1.368.912.912 1.368 2.208 1.368 3.888v4.968c0 .304.056.52.168.648.112.112.288.168.528.168h.456V56a8.805 8.805 0 0 1-.432.048 5.07 5.07 0 0 1-.504.024c-.88 0-1.536-.208-1.968-.624-.416-.432-.624-1.152-.624-2.16l.264.12c-.176.832-.688 1.52-1.536 2.064-.848.544-1.848.816-3 .816Zm.432-2.016c.752 0 1.4-.144 1.944-.432.56-.304.984-.72 1.272-1.248.304-.528.456-1.128.456-1.8v-.816l-3.72.72c-.752.144-1.296.368-1.632.672-.32.304-.48.704-.48 1.2 0 .544.184.968.552 1.272.384.288.92.432 1.608.432Zm9.145-11.04h2.328l.096 3.384-.216-.072c.176-1.136.528-1.968 1.056-2.496.528-.544 1.256-.816 2.184-.816h1.224v2.28h-1.224c-.656 0-1.2.112-1.632.336a2.144 2.144 0 0 0-.96.96c-.208.432-.312.984-.312 1.656V56h-2.544V43.232Zm8.445 0h2.544V56h-2.544V43.232Zm-.048-4.392h2.664v2.544h-2.664V38.84Zm9.092 17.448c-1.328 0-2.392-.304-3.192-.912-.784-.624-1.176-1.48-1.176-2.568s.328-1.944.984-2.568c.656-.624 1.688-1.072 3.096-1.344l4.392-.84c0-.992-.232-1.728-.696-2.208-.448-.496-1.128-.744-2.04-.744-.8 0-1.44.184-1.92.552-.48.352-.8.88-.96 1.584l-2.64-.168c.24-1.296.84-2.304 1.8-3.024.976-.736 2.216-1.104 3.72-1.104 1.712 0 3.016.456 3.912 1.368.912.912 1.368 2.208 1.368 3.888v4.968c0 .304.056.52.168.648.112.112.288.168.528.168h.456V56a8.805 8.805 0 0 1-.432.048 5.07 5.07 0 0 1-.504.024c-.88 0-1.536-.208-1.968-.624-.416-.432-.624-1.152-.624-2.16l.264.12c-.176.832-.688 1.52-1.536 2.064-.848.544-1.848.816-3 .816Zm.432-2.016c.752 0 1.4-.144 1.944-.432.56-.304.984-.72 1.272-1.248.304-.528.456-1.128.456-1.8v-.816l-3.72.72c-.752.144-1.296.368-1.632.672-.32.304-.48.704-.48 1.2 0 .544.184.968.552 1.272.384.288.92.432 1.608.432Zm9.504-15.312h5.472c2.672 0 4.728.744 6.168 2.232 1.44 1.472 2.16 3.576 2.16 6.312 0 2.72-.712 4.816-2.136 6.288-1.408 1.472-3.424 2.208-6.048 2.208h-5.616V38.96Zm5.472 14.664c1.888 0 3.296-.504 4.224-1.512.944-1.024 1.416-2.56 1.416-4.608 0-2.064-.472-3.608-1.416-4.632-.928-1.024-2.336-1.536-4.224-1.536h-2.88v12.288h2.88Zm10.191-14.664h6.12c2.064 0 3.608.376 4.632 1.128 1.04.736 1.56 1.896 1.56 3.48 0 .72-.152 1.352-.456 1.896-.304.544-.752.976-1.344 1.296-.576.304-1.264.464-2.064.48l-.024-.096c1.44.032 2.568.424 3.384 1.176.816.752 1.224 1.752 1.224 3 0 1.536-.52 2.704-1.56 3.504-1.024.784-2.504 1.176-4.44 1.176h-7.032V38.96Zm6.96 14.712c1.088 0 1.928-.224 2.52-.672.592-.448.888-1.088.888-1.92 0-.832-.296-1.48-.888-1.944-.592-.464-1.432-.696-2.52-.696h-4.368v5.232h4.368Zm-.888-7.44c1.136 0 2.016-.216 2.64-.648.624-.432.936-1.04.936-1.824 0-.832-.304-1.448-.912-1.848-.592-.416-1.48-.624-2.664-.624h-3.48v4.944h3.48Z" fill="#4A43CE"/><defs><clipPath id="a"><path fill="#fff" transform="translate(20.5 20)" d="M0 0h56v56H0z"/></clipPath></defs></svg>