<svg width="245" height="96" fill="none" xmlns="http://www.w3.org/2000/svg"><path d="M69.151 54.09c-6.234 1.3-6.663-.835-6.663-.835 6.582-9.883 9.334-22.427 6.96-25.497-6.479-8.375-17.693-4.414-17.88-4.311l-.06.01c-1.232-.258-2.61-.412-4.16-.438-2.821-.046-4.961.748-6.585 1.994 0 0-20.005-8.338-19.075 10.488.198 4.004 5.674 30.303 12.205 22.36 2.387-2.905 4.694-5.361 4.694-5.361 1.145.77 2.516 1.163 3.954 1.022l.112-.096c-.035.36-.02.713.044 1.13-1.682 1.903-1.188 2.236-4.55 2.937-3.404.71-1.405 1.973-.1 2.303 1.583.4 5.244.968 7.718-2.536l-.099.4c.66.534 1.122 3.475 1.045 6.14-.078 2.666-.13 4.496.39 5.926.52 1.43 1.037 4.646 5.458 3.688 3.695-.802 5.61-2.877 5.876-6.34.189-2.462.616-2.098.643-4.299l.343-1.042c.396-3.337.063-4.413 2.34-3.912l.553.049c1.675.077 3.868-.273 5.155-.878 2.77-1.301 4.414-3.474 1.682-2.903Z" fill="#4A43CE"/><path d="M41.934 37.291c-.561-.079-1.07-.006-1.328.192a.494.494 0 0 0-.201.328c-.033.234.13.493.23.627.282.378.694.638 1.102.695.059.009.118.013.176.013.68 0 1.299-.536 1.354-.932.068-.495-.643-.826-1.333-.923Zm18.613.016c-.054-.388-.737-.499-1.385-.408-.648.091-1.275.387-1.223.776.042.303.582.82 1.222.82.054 0 .108-.004.163-.012.427-.06.74-.334.889-.492.226-.24.358-.51.334-.684Z" fill="#F3EFEE"/><path d="M71.226 53.941c-.238-.727-1.003-.961-2.274-.696-3.775.789-5.126.243-5.57-.088 2.934-4.522 5.347-9.988 6.65-15.088.616-2.416.957-4.66.984-6.488.031-2.007-.307-3.482-1.003-4.383-2.81-3.633-6.934-5.58-11.925-5.634-3.431-.04-6.33.85-6.893 1.1a16.993 16.993 0 0 0-3.878-.505c-2.576-.042-4.803.582-6.647 1.854-.8-.302-2.87-1.02-5.4-1.433-4.376-.713-7.853-.173-10.335 1.606-2.96 2.122-4.327 5.916-4.062 11.275.089 1.803 1.104 7.35 2.707 12.662 2.109 6.992 4.402 10.95 6.814 11.764.283.095.608.162.968.162.88 0 1.959-.402 3.081-1.767a112.025 112.025 0 0 1 4.248-4.863c.948.515 1.99.803 3.055.832l.008.084a24.92 24.92 0 0 0-.539.673c-.738.949-.892 1.146-3.269 1.641-.676.142-2.471.516-2.498 1.79-.028 1.39 2.123 1.975 2.368 2.037.854.216 1.677.323 2.462.323 1.908 0 3.587-.635 4.93-1.862-.042 4.96.162 9.847.751 11.337.482 1.219 1.66 4.198 5.38 4.198.546 0 1.147-.064 1.808-.208 3.882-.842 5.569-2.578 6.22-6.406.35-2.046.949-6.93 1.23-9.55.595.187 1.36.273 2.188.273 1.725 0 3.717-.371 4.966-.958 1.402-.659 3.934-2.276 3.475-3.682ZM61.98 36.235c-.013.774-.118 1.476-.23 2.209-.12.788-.244 1.603-.275 2.593-.031.963.088 1.964.203 2.932.232 1.956.47 3.969-.452 5.956a7.794 7.794 0 0 1-.41-.85c-.114-.282-.363-.734-.708-1.36-1.341-2.433-4.482-8.133-2.874-10.459.479-.692 1.694-1.404 4.746-1.02ZM58.28 23.13c4.472.1 8.01 1.793 10.515 5.031 1.921 2.484-.195 13.786-6.319 23.537a35.16 35.16 0 0 0-.185-.237l-.078-.098c1.583-2.645 1.273-5.26.998-7.58-.113-.952-.22-1.851-.193-2.696.028-.895.145-1.663.258-2.405.14-.915.28-1.861.242-2.977.029-.117.04-.256.025-.42-.1-1.07-1.307-4.272-3.768-7.171-1.346-1.585-3.31-3.36-5.99-4.556a19.969 19.969 0 0 1 4.495-.428ZM33.255 57.282c-1.237 1.505-2.09 1.217-2.372 1.122-1.83-.618-3.953-4.531-5.826-10.737-1.62-5.37-2.566-10.77-2.641-12.284-.237-4.79.91-8.127 3.41-9.92 4.068-2.919 10.755-1.172 13.443-.286-.039.039-.08.075-.117.114-4.41 4.506-4.306 12.204-4.295 12.675 0 .182.015.439.036.792.075 1.295.217 3.705-.16 6.434-.351 2.536.422 5.018 2.119 6.81.174.184.357.359.549.524-.756.819-2.398 2.63-4.146 4.756Zm4.712-6.361c-1.368-1.444-1.989-3.453-1.704-5.513.398-2.882.25-5.393.172-6.742-.011-.189-.021-.354-.027-.485.644-.578 3.63-2.196 5.759-1.703.971.225 1.563.895 1.81 2.046 1.273 5.96.168 8.445-.72 10.442-.183.41-.356.8-.503 1.202l-.115.31c-.29.787-.56 1.518-.726 2.212-1.455-.005-2.87-.633-3.945-1.77Zm.224 8.038a3.392 3.392 0 0 1-1.031-.448c.187-.089.52-.21 1.098-.33 2.796-.583 3.228-.994 4.17-2.205.217-.278.462-.593.801-.976.506-.574.737-.476 1.157-.3.34.142.67.573.805 1.047.063.224.134.65-.099.98-1.97 2.79-4.84 2.755-6.901 2.233Zm14.632 13.777c-3.42.741-4.631-1.024-5.43-3.043-.514-1.303-.768-7.18-.588-13.67a.793.793 0 0 0-.033-.247 3.317 3.317 0 0 0-.096-.459c-.267-.944-.918-1.734-1.699-2.062-.31-.13-.88-.368-1.564-.191.146-.608.4-1.295.674-2.04l.115-.312c.13-.353.292-.718.464-1.105.93-2.089 2.202-4.95.82-11.413-.517-2.421-2.245-3.603-4.864-3.329-1.57.165-3.007.806-3.723 1.173-.154.08-.295.156-.427.23.2-2.44.956-6.998 3.782-9.882 1.78-1.816 4.15-2.712 7.037-2.664 5.69.094 9.338 3.048 11.397 5.51 1.774 2.121 2.735 4.258 3.119 5.41-2.884-.296-4.845.28-5.84 1.718-2.162 3.128 1.184 9.2 2.792 12.117.295.535.55.997.63 1.193.523 1.284 1.201 2.142 1.696 2.767.152.192.3.378.411.54-.873.255-2.442.844-2.299 3.786-.115 1.476-.935 8.388-1.352 10.83-.55 3.226-1.723 4.427-5.022 5.143ZM67.1 56.206c-.893.419-2.387.733-3.807.801-1.568.074-2.366-.178-2.554-.333-.088-1.833.586-2.025 1.3-2.227.112-.032.221-.063.327-.1.066.053.138.107.217.16 1.26.841 3.508.932 6.681.27l.035-.008c-.428.405-1.16.949-2.199 1.437Z" fill="#F3EFEE"/><path d="M94.564 38.96h6.36c1.28 0 2.384.216 3.312.648.928.416 1.64 1.024 2.136 1.824.496.784.744 1.728.744 2.832 0 1.104-.248 2.064-.744 2.88-.496.8-1.208 1.416-2.136 1.848-.928.416-2.032.624-3.312.624h-3.768V56h-2.592V38.96Zm6.288 8.304c1.168 0 2.056-.256 2.664-.768.608-.512.912-1.256.912-2.232 0-.976-.304-1.704-.912-2.184-.608-.496-1.496-.744-2.664-.744h-3.696v5.928h3.696Zm13.484 9.024c-1.216 0-2.28-.272-3.192-.816-.912-.544-1.624-1.32-2.136-2.328-.496-1.008-.744-2.184-.744-3.528 0-1.344.248-2.52.744-3.528.512-1.008 1.224-1.784 2.136-2.328.912-.544 1.976-.816 3.192-.816 1.2 0 2.256.272 3.168.816.912.544 1.616 1.32 2.112 2.328.512 1.008.768 2.184.768 3.528 0 1.344-.256 2.52-.768 3.528-.496 1.008-1.2 1.784-2.112 2.328-.912.544-1.968.816-3.168.816Zm0-2.208c1.072 0 1.904-.392 2.496-1.176.608-.8.912-1.896.912-3.288s-.304-2.48-.912-3.264c-.592-.8-1.424-1.2-2.496-1.2s-1.912.392-2.52 1.176c-.608.784-.912 1.88-.912 3.288s.304 2.504.912 3.288c.608.784 1.448 1.176 2.52 1.176Zm13.269 2.208c-1.168 0-2.176-.176-3.024-.528-.832-.368-1.48-.872-1.944-1.512-.448-.656-.704-1.416-.768-2.28l2.64-.12c.112.736.416 1.304.912 1.704.512.4 1.24.6 2.184.6.816 0 1.448-.128 1.896-.384.464-.272.696-.68.696-1.224 0-.32-.08-.584-.24-.792-.16-.208-.456-.384-.888-.528-.432-.16-1.072-.312-1.92-.456-1.248-.224-2.24-.496-2.976-.816-.72-.336-1.232-.744-1.536-1.224-.304-.496-.456-1.104-.456-1.824 0-1.184.448-2.136 1.344-2.856.896-.736 2.152-1.104 3.768-1.104 1.568 0 2.8.392 3.696 1.176.912.768 1.464 1.776 1.656 3.024l-2.616.144c-.128-.688-.432-1.224-.912-1.608-.464-.4-1.08-.6-1.848-.6-.8 0-1.408.16-1.824.48-.416.304-.624.72-.624 1.248 0 .384.088.696.264.936.192.24.488.44.888.6.416.144.984.272 1.704.384 1.328.224 2.36.496 3.096.816.736.32 1.264.72 1.584 1.2.32.464.48 1.056.48 1.776 0 1.184-.488 2.112-1.464 2.784-.96.656-2.216.984-3.768.984ZM139.404 56c-1.216 0-2.112-.28-2.688-.84-.576-.56-.864-1.432-.864-2.616V40.232h2.544v12.12c0 .576.12.984.36 1.224.256.224.656.336 1.2.336h1.824V56h-2.376Zm-5.496-12.768h7.872v2.088h-7.872v-2.088Zm14.891 16.656c-.992 0-1.88-.152-2.664-.456-.768-.304-1.4-.736-1.896-1.296a4.277 4.277 0 0 1-1.008-1.92l2.64-.168c.176.576.488 1.008.936 1.296.464.288 1.128.432 1.992.432 1.072 0 1.88-.224 2.424-.672.56-.448.84-1.128.84-2.04v-1.848c-.32.656-.816 1.176-1.488 1.56-.656.384-1.4.576-2.232.576-1.056 0-2-.256-2.832-.768-.832-.528-1.488-1.256-1.968-2.184-.464-.944-.696-2.024-.696-3.24 0-1.216.232-2.288.696-3.216.464-.944 1.104-1.68 1.92-2.208.816-.528 1.752-.792 2.808-.792.896 0 1.688.208 2.376.624.704.4 1.208.96 1.512 1.68v-2.016h2.472v11.76c0 1.552-.52 2.752-1.56 3.6-1.04.864-2.464 1.296-4.272 1.296Zm-.048-6.696c.672 0 1.256-.16 1.752-.48.496-.336.88-.808 1.152-1.416.288-.608.432-1.328.432-2.16 0-.816-.136-1.528-.408-2.136-.256-.608-.64-1.072-1.152-1.392-.512-.336-1.104-.504-1.776-.504-1.008 0-1.808.368-2.4 1.104-.576.72-.864 1.696-.864 2.928 0 1.248.296 2.24.888 2.976.592.72 1.384 1.08 2.376 1.08Zm8.985-9.96h2.328l.096 3.384-.216-.072c.176-1.136.528-1.968 1.056-2.496.528-.544 1.256-.816 2.184-.816h1.224v2.28h-1.224c-.656 0-1.2.112-1.632.336a2.144 2.144 0 0 0-.96.96c-.208.432-.312.984-.312 1.656V56h-2.544V43.232Zm13.566 13.056c-1.216 0-2.28-.272-3.192-.816-.912-.544-1.616-1.32-2.112-2.328-.496-1.008-.744-2.184-.744-3.528 0-1.328.248-2.496.744-3.504.496-1.024 1.192-1.808 2.088-2.352.896-.544 1.944-.816 3.144-.816 1.168 0 2.192.272 3.072.816.88.528 1.56 1.304 2.04 2.328.496 1.008.744 2.216.744 3.624v.648h-9.168c.048 1.216.368 2.144.96 2.784.608.64 1.424.96 2.448.96.752 0 1.376-.168 1.872-.504.496-.336.848-.816 1.056-1.44l2.64.168c-.336 1.216-1.008 2.184-2.016 2.904-.992.704-2.184 1.056-3.576 1.056Zm3.072-7.848c-.08-1.104-.4-1.936-.96-2.496-.544-.56-1.272-.84-2.184-.84-.912 0-1.664.288-2.256.864-.576.576-.928 1.4-1.056 2.472h6.456Zm11.545 7.944c-1.344 0-2.52-.24-3.528-.72a6.082 6.082 0 0 1-2.376-2.064c-.576-.896-.912-1.928-1.008-3.096l2.664-.168c.112.8.344 1.48.696 2.04.352.544.824.96 1.416 1.248.608.272 1.336.408 2.184.408 1.12 0 1.976-.208 2.568-.624.608-.432.912-1.04.912-1.824 0-.512-.12-.952-.36-1.32-.24-.368-.688-.704-1.344-1.008-.64-.304-1.576-.608-2.808-.912-1.408-.336-2.512-.704-3.312-1.104-.784-.4-1.36-.896-1.728-1.488-.352-.592-.528-1.336-.528-2.232 0-.96.232-1.816.696-2.568.48-.752 1.16-1.336 2.04-1.752.896-.416 1.952-.624 3.168-.624 1.264 0 2.36.24 3.288.72a5.542 5.542 0 0 1 2.208 1.944c.544.832.88 1.792 1.008 2.88l-2.64.144a4.291 4.291 0 0 0-.624-1.728 3.138 3.138 0 0 0-1.32-1.176c-.544-.288-1.2-.432-1.968-.432-.976 0-1.752.232-2.328.696-.576.448-.864 1.048-.864 1.8 0 .496.112.904.336 1.224.24.32.648.6 1.224.84s1.44.496 2.592.768c1.456.336 2.616.744 3.48 1.224.88.48 1.504 1.048 1.872 1.704.384.64.576 1.392.576 2.256 0 .992-.264 1.864-.792 2.616-.512.736-1.24 1.312-2.184 1.728-.928.4-2 .6-3.216.6Zm19.037-.552c-.832.368-1.832.552-3 .552-1.6 0-3-.384-4.2-1.152-1.184-.784-2.096-1.848-2.736-3.192-.624-1.344-.936-2.856-.936-4.536 0-1.696.304-3.216.912-4.56.624-1.36 1.528-2.424 2.712-3.192 1.2-.784 2.616-1.176 4.248-1.176 1.664 0 3.088.392 4.272 1.176 1.2.768 2.104 1.832 2.712 3.192.608 1.344.912 2.864.912 4.56 0 1.568-.28 2.992-.84 4.272-.544 1.28-1.328 2.32-2.352 3.12l2.16 2.712h-2.496l-1.368-1.776Zm-3-1.824c.656 0 1.144-.072 1.464-.216l-2.424-3.048h2.472l1.632 2.16c.688-.576 1.2-1.312 1.536-2.208.352-.896.528-1.96.528-3.192 0-1.232-.192-2.336-.576-3.312-.384-.992-.968-1.776-1.752-2.352-.784-.592-1.744-.888-2.88-.888-1.12 0-2.072.296-2.856.888-.768.576-1.352 1.36-1.752 2.352-.384.976-.576 2.08-.576 3.312 0 1.216.192 2.32.576 3.312.4.976.992 1.752 1.776 2.328.784.576 1.728.864 2.832.864Zm10.327-15.048h2.592v16.08l-1.368-1.416h9.672V56h-10.896V38.96Z" fill="#4A43CE"/></svg>