<svg width="40" height="40" viewBox="0 0 40 40" fill="none" xmlns="http://www.w3.org/2000/svg">
<g id="Frame">
<path id="Vector" d="M16.8982 38.3776H0.206975V20.7204C0.128613 18.1814 0.481244 15.7964 1.26487 13.5651C2.12686 11.3339 3.3023 9.37203 4.79119 7.6794C6.28007 5.98677 8.04323 4.60189 10.0807 3.52476C12.1964 2.37069 14.469 1.63978 16.8982 1.33203V8.94888C13.9204 9.94904 11.883 11.4493 10.7859 13.4497C9.68882 15.3732 9.14031 17.7583 9.14031 20.605H16.8982V38.3776ZM39.8298 38.3776H23.1386V20.7204C23.0602 18.1814 23.4129 15.7964 24.1964 13.5651C25.0585 11.3339 26.2339 9.37203 27.7228 7.6794C29.2116 5.98677 30.9748 4.60189 33.0122 3.52476C35.128 2.37069 37.4006 1.63978 39.8298 1.33203V8.94888C36.852 9.94904 34.8146 11.4493 33.7175 13.4497C32.6204 15.3732 32.0719 17.7583 32.0719 20.605H39.8298V38.3776Z" fill="#5850EC"/>
</g>
</svg>
