<svg width="207" height="96" fill="none" xmlns="http://www.w3.org/2000/svg"><path d="m48.5 62.818 20.806 5.07V28L48.5 33.07v29.748Z" fill="#3D36BC"/><path d="m69.306 28 3.963 2.028V65.86l-3.963 2.028V28ZM48.5 62.818l-20.806 5.07V28L48.5 33.07v29.748Z" fill="#8A85EC"/><path d="m27.694 28-3.963 2.028V65.86l3.963 2.028V28Z" fill="#3D36BC"/><path d="m53.785 76 7.926-4.056V24.056L53.785 20l-2.423 26.592L53.785 76Z" fill="#8A85EC"/><path d="m43.215 76-7.926-4.056V24.056L43.215 20l2.423 26.592L43.215 76Z" fill="#3D36BC"/><path d="M43.215 20h10.677v55.887H43.215V20ZM94.564 38.96h6.792c1.2 0 2.24.208 3.12.624.896.416 1.584 1.016 2.064 1.8.48.768.72 1.672.72 2.712 0 .752-.168 1.432-.504 2.04a4.009 4.009 0 0 1-1.368 1.464 3.89 3.89 0 0 1-1.824.624l-.12-.216c1.072 0 1.904.248 2.496.744.592.48.936 1.24 1.032 2.28l.456 4.968h-2.616l-.408-4.632c-.048-.704-.288-1.216-.72-1.536-.416-.32-1.088-.48-2.016-.48h-4.512V56h-2.592V38.96Zm6.84 8.016c.976 0 1.744-.24 2.304-.72.576-.496.864-1.192.864-2.088 0-.912-.296-1.608-.888-2.088-.576-.496-1.408-.744-2.496-.744h-4.032v5.64h4.248Zm13.441 9.312c-1.216 0-2.28-.272-3.192-.816-.912-.544-1.616-1.32-2.112-2.328-.496-1.008-.744-2.184-.744-3.528 0-1.328.248-2.496.744-3.504.496-1.024 1.192-1.808 2.088-2.352.896-.544 1.944-.816 3.144-.816 1.168 0 2.192.272 3.072.816.88.528 1.56 1.304 2.04 2.328.496 1.008.744 2.216.744 3.624v.648h-9.168c.048 1.216.368 2.144.96 2.784.608.64 1.424.96 2.448.96.752 0 1.376-.168 1.872-.504.496-.336.848-.816 1.056-1.44l2.64.168c-.336 1.216-1.008 2.184-2.016 2.904-.992.704-2.184 1.056-3.576 1.056Zm3.072-7.848c-.08-1.104-.4-1.936-.96-2.496-.544-.56-1.272-.84-2.184-.84-.912 0-1.664.288-2.256.864-.576.576-.928 1.4-1.056 2.472h6.456Zm9.317 7.848c-1.088 0-2.04-.272-2.856-.816-.8-.544-1.416-1.32-1.848-2.328-.432-1.008-.648-2.184-.648-3.528 0-1.344.216-2.52.648-3.528.432-1.008 1.048-1.784 1.848-2.328.816-.544 1.768-.816 2.856-.816.88 0 1.656.184 2.328.552.688.368 1.208.88 1.56 1.536V38.96h2.544V56h-2.352l-.072-1.92c-.352.688-.888 1.232-1.608 1.632-.704.384-1.504.576-2.4.576Zm.672-2.208c.672 0 1.248-.176 1.728-.528.496-.352.864-.856 1.104-1.512.256-.672.384-1.48.384-2.424s-.128-1.752-.384-2.424c-.24-.672-.6-1.176-1.08-1.512-.48-.352-1.064-.528-1.752-.528-1.04 0-1.864.4-2.472 1.2-.608.784-.912 1.872-.912 3.264 0 1.376.304 2.464.912 3.264.624.8 1.448 1.2 2.472 1.2Zm13.617 2.208c-1.168 0-2.176-.176-3.024-.528-.832-.368-1.48-.872-1.944-1.512-.448-.656-.704-1.416-.768-2.28l2.64-.12c.112.736.416 1.304.912 1.704.512.4 1.24.6 2.184.6.816 0 1.448-.128 1.896-.384.464-.272.696-.68.696-1.224 0-.32-.08-.584-.24-.792-.16-.208-.456-.384-.888-.528-.432-.16-1.072-.312-1.92-.456-1.248-.224-2.24-.496-2.976-.816-.72-.336-1.232-.744-1.536-1.224-.304-.496-.456-1.104-.456-1.824 0-1.184.448-2.136 1.344-2.856.896-.736 2.152-1.104 3.768-1.104 1.568 0 2.8.392 3.696 1.176.912.768 1.464 1.776 1.656 3.024l-2.616.144c-.128-.688-.432-1.224-.912-1.608-.464-.4-1.08-.6-1.848-.6-.8 0-1.408.16-1.824.48-.416.304-.624.72-.624 1.248 0 .384.088.696.264.936.192.24.488.44.888.6.416.144.984.272 1.704.384 1.328.224 2.36.496 3.096.816.736.32 1.264.72 1.584 1.2.32.464.48 1.056.48 1.776 0 1.184-.488 2.112-1.464 2.784-.96.656-2.216.984-3.768.984Zm6.944-17.328h2.544v7.152l-.312-.048c.208-1.04.672-1.816 1.392-2.328.72-.528 1.608-.792 2.664-.792 1.36 0 2.416.44 3.168 1.32.752.88 1.128 2.056 1.128 3.528V56h-2.544v-7.536c0-1.136-.2-1.984-.6-2.544-.4-.56-1.008-.84-1.824-.84-.96 0-1.712.304-2.256.912-.544.592-.816 1.432-.816 2.52V56h-2.544V38.96Zm13.46 4.272h2.544V56h-2.544V43.232Zm-.048-4.392h2.664v2.544h-2.664V38.84Zm6.764 3.576c0-1.088.304-1.936.912-2.544.608-.608 1.528-.912 2.76-.912h2.256v2.088h-1.92c-.496 0-.864.128-1.104.384-.24.256-.36.632-.36 1.128V56h-2.544V42.416Zm-1.776.984h7.512v2.064h-7.512V43.4ZM181.484 56c-1.216 0-2.112-.28-2.688-.84-.576-.56-.864-1.432-.864-2.616V40.232h2.544v12.12c0 .576.12.984.36 1.224.256.224.656.336 1.2.336h1.824V56h-2.376Zm-5.496-12.768h7.872v2.088h-7.872v-2.088Z" fill="#4A43CE"/></svg>