<svg width="180" height="72" viewBox="0 0 180 72" fill="none" xmlns="http://www.w3.org/2000/svg">
<g id="6">
<path id="Vector" fill-rule="evenodd" clip-rule="evenodd" d="M34.1709 25.7676V29.8951C32.208 29.2085 30.0585 28.8076 28.3448 28.8076C26.2295 28.8076 25.0523 29.4521 25.0523 30.6102C25.0523 31.3492 25.5675 31.8389 27.0454 32.5033L31.0205 34.2869C34.2003 35.7156 35.8029 37.8 35.8029 40.5083C35.8029 44.6882 32.185 47.325 26.4501 47.325C24.3586 47.325 21.9393 47.0258 19.3762 46.4463V42.1799C21.917 42.8713 24.2443 43.2404 26.0548 43.2404C28.4258 43.2404 29.6958 42.58 29.6958 41.3489C29.6958 40.6091 29.1997 40.0654 28.0638 39.5582L23.7133 37.6206C20.4883 36.1823 19 34.2448 19 31.4826C19 27.5241 22.4869 25 27.9575 25C29.8728 25 32.2302 25.2913 34.1709 25.7676ZM38.8985 25.4326H45.3271V46.8924H38.8985V25.4326ZM66.2289 25.4326V29.364H56.5237V34.2043H65.0018V37.7603H56.5237V42.7784H66.3543V46.8924H50.2769V25.4326H66.2289ZM96.5993 25.4326V46.8924H90.3795V32.7676L84.2867 47.0599H80.3545L74.3029 32.7676V46.8924H70.0079V25.4326H77.8581L83.408 38.4858L88.9293 25.4326H96.5993ZM117.518 25.4326V29.364H107.798V34.2043H116.274V37.7603H107.798V42.7784H117.627V46.8924H101.536V25.4326H117.518ZM140.161 25.4326V46.8924H133.301L125.576 33.1288V46.8924H121.28V25.4326H128.322L135.88 39.0144V25.4326H140.161ZM158.817 25.7676V29.8951C156.869 29.2132 154.706 28.8076 153.024 28.8076C150.875 28.8076 149.699 29.4418 149.699 30.6039C149.699 31.3611 150.179 31.8135 151.708 32.5041L155.665 34.2877C158.868 35.7315 160.451 37.7976 160.451 40.5376C160.451 44.6953 156.83 47.3266 151.108 47.3266C149.013 47.3266 146.584 47.0258 144.024 46.4479V42.1815C146.562 42.8713 148.884 43.2419 150.683 43.2419C153.038 43.2419 154.343 42.5816 154.343 41.3893C154.343 40.6004 153.886 40.0916 152.695 39.5597L148.362 37.6222C145.117 36.1728 143.646 34.2575 143.646 31.4849C143.646 27.5289 147.135 25.0032 152.593 25.0032C154.514 25.0008 156.881 25.2913 158.817 25.7676Z" fill="#0F0F10" fill-opacity="0.64"/>
</g>
</svg>
