<svg width="231" height="96" fill="none" xmlns="http://www.w3.org/2000/svg"><g clip-path="url(#a)" fill="#4A43CE"><path d="m68.697 62.84-11.869-6.747c-1.667-.944-3.8-.383-4.764 1.258a3.385 3.385 0 0 0-.45 2.048v13.185c0 1.884 1.556 3.415 3.476 3.415 1.915 0 3.471-1.53 3.471-3.415v-7.582l6.65 3.779c1.667.95 3.804.382 4.764-1.258a3.391 3.391 0 0 0-1.278-4.683ZM39.179 48.383a3.352 3.352 0 0 0-1.703-2.964l-11.869-6.741a3.448 3.448 0 0 0-4.653 1.228c-.94 1.6-.379 3.654 1.248 4.579l6.841 3.883-6.841 3.887a3.32 3.32 0 0 0-1.587 2.034 3.28 3.28 0 0 0 .339 2.545 3.427 3.427 0 0 0 2.95 1.676c.597 0 1.188-.154 1.703-.448l11.87-6.741a3.36 3.36 0 0 0 1.702-2.938ZM28.301 33.9l11.869 6.742a3.53 3.53 0 0 0 4.183-.517 3.38 3.38 0 0 0 1.122-2.516V24.096c0-1.889-1.556-3.42-3.471-3.42-1.92 0-3.476 1.531-3.476 3.42v7.691l-6.74-3.828c-1.668-.95-3.8-.388-4.765 1.253-.965 1.64-.39 3.739 1.278 4.688ZM54.99 48.93c0 .258-.152.616-.34.805l-4.703 4.629a1.346 1.346 0 0 1-.819.333h-1.197c-.263 0-.632-.15-.819-.333l-4.709-4.629a1.313 1.313 0 0 1-.338-.805v-1.178c0-.264.151-.622.338-.806l4.71-4.633c.186-.184.555-.334.818-.334h1.197c.263 0 .632.15.819.334l4.704 4.633c.187.184.338.542.338.806v1.178Zm-4.2-.567v-.05a.973.973 0 0 0-.247-.591l-1.39-1.363a.958.958 0 0 0-.6-.248h-.051c-.193 0-.46.11-.602.248l-1.384 1.363a.949.949 0 0 0-.248.591v.05c0 .194.111.457.248.592l1.384 1.367c.142.134.41.243.602.243h.05a.98.98 0 0 0 .601-.243l1.39-1.367a.949.949 0 0 0 .247-.592ZM56.828 40.642 68.697 33.9c1.667-.944 2.243-3.047 1.278-4.688-.965-1.64-3.097-2.202-4.764-1.253l-6.65 3.779v-7.642c0-1.889-1.556-3.42-3.47-3.42-1.92 0-3.477 1.531-3.477 3.42v13.245c-.066.686.07 1.401.45 2.048.965 1.64 3.097 2.202 4.764 1.253ZM42.55 55.695a3.507 3.507 0 0 0-2.38.398L28.3 62.839c-1.667.945-2.243 3.043-1.278 4.684.965 1.645 3.097 2.207 4.764 1.258l6.74-3.829v7.632c0 1.884 1.557 3.415 3.477 3.415 1.915 0 3.471-1.531 3.471-3.415V59.07c0-1.705-1.268-3.117-2.925-3.376ZM76.114 39.866c-.96-1.646-3.097-2.207-4.764-1.258L59.48 45.35a3.424 3.424 0 0 0-1.742 3.032 3.413 3.413 0 0 0 1.743 3.003l11.869 6.747c1.667.944 3.8.382 4.764-1.258.965-1.64.39-3.739-1.278-4.688l-6.72-3.819 6.72-3.818a3.391 3.391 0 0 0 1.278-4.683Z"/></g><path d="M100.756 56.384c-1.344 0-2.52-.24-3.528-.72a6.082 6.082 0 0 1-2.376-2.064c-.576-.896-.912-1.928-1.008-3.096l2.664-.168c.112.8.344 1.48.696 2.04.352.544.824.96 1.416 1.248.608.272 1.336.408 2.184.408 1.12 0 1.976-.208 2.568-.624.608-.432.912-1.04.912-1.824 0-.512-.12-.952-.36-1.32-.24-.368-.688-.704-1.344-1.008-.64-.304-1.576-.608-2.808-.912-1.408-.336-2.512-.704-3.312-1.104-.784-.4-1.36-.896-1.728-1.488-.352-.592-.528-1.336-.528-2.232 0-.96.232-1.816.696-2.568.48-.752 1.16-1.336 2.04-1.752.896-.416 1.952-.624 3.168-.624 1.264 0 2.36.24 3.288.72a5.542 5.542 0 0 1 2.208 1.944c.544.832.88 1.792 1.008 2.88l-2.64.144a4.291 4.291 0 0 0-.624-1.728 3.138 3.138 0 0 0-1.32-1.176c-.544-.288-1.2-.432-1.968-.432-.976 0-1.752.232-2.328.696-.576.448-.864 1.048-.864 1.8 0 .496.112.904.336 1.224.24.32.648.6 1.224.84s1.44.496 2.592.768c1.456.336 2.616.744 3.48 1.224.88.48 1.504 1.048 1.872 1.704.384.64.576 1.392.576 2.256 0 .992-.264 1.864-.792 2.616-.512.736-1.24 1.312-2.184 1.728-.928.4-2 .6-3.216.6Zm8.176-13.152h2.328l.096 3.408-.312-.168c.208-1.184.68-2.064 1.416-2.64.752-.592 1.664-.888 2.736-.888 1.376 0 2.44.448 3.192 1.344.752.88 1.128 2.048 1.128 3.504V56h-2.544v-7.44c0-1.152-.192-2.016-.576-2.592-.384-.592-1.016-.888-1.896-.888-.928 0-1.664.304-2.208.912-.544.608-.816 1.464-.816 2.568V56h-2.544V43.232Zm18.459 13.056c-1.216 0-2.28-.272-3.192-.816-.912-.544-1.624-1.32-2.136-2.328-.496-1.008-.744-2.184-.744-3.528 0-1.344.248-2.52.744-3.528.512-1.008 1.224-1.784 2.136-2.328.912-.544 1.976-.816 3.192-.816 1.2 0 2.256.272 3.168.816.912.544 1.616 1.32 2.112 2.328.512 1.008.768 2.184.768 3.528 0 1.344-.256 2.52-.768 3.528-.496 1.008-1.2 1.784-2.112 2.328-.912.544-1.968.816-3.168.816Zm0-2.208c1.072 0 1.904-.392 2.496-1.176.608-.8.912-1.896.912-3.288s-.304-2.48-.912-3.264c-.592-.8-1.424-1.2-2.496-1.2s-1.912.392-2.52 1.176c-.608.784-.912 1.88-.912 3.288s.304 2.504.912 3.288c.608.784 1.448 1.176 2.52 1.176Zm6.274-10.848h2.664l2.736 9.984 2.808-9.984h2.424l2.808 9.984 2.736-9.984h2.688L148.617 56h-2.856l-2.688-9.12-2.664 9.12h-2.856l-3.888-12.768Zm21.746-.816c0-1.088.304-1.936.912-2.544.608-.608 1.528-.912 2.76-.912h2.256v2.088h-1.92c-.496 0-.864.128-1.104.384-.24.256-.36.632-.36 1.128V56h-2.544V42.416Zm-1.776.984h7.512v2.064h-7.512V43.4ZM165.719 56c-.88 0-1.568-.216-2.064-.648-.496-.448-.744-1.136-.744-2.064l.024-14.328h2.544v14.088c0 .288.072.504.216.648.16.144.376.216.648.216h1.032V56h-1.656Zm7.244.288c-1.328 0-2.392-.304-3.192-.912-.784-.624-1.176-1.48-1.176-2.568s.328-1.944.984-2.568c.656-.624 1.688-1.072 3.096-1.344l4.392-.84c0-.992-.232-1.728-.696-2.208-.448-.496-1.128-.744-2.04-.744-.8 0-1.44.184-1.92.552-.48.352-.8.88-.96 1.584l-2.64-.168c.24-1.296.84-2.304 1.8-3.024.976-.736 2.216-1.104 3.72-1.104 1.712 0 3.016.456 3.912 1.368.912.912 1.368 2.208 1.368 3.888v4.968c0 .304.056.52.168.648.112.112.288.168.528.168h.456V56a8.805 8.805 0 0 1-.432.048 5.07 5.07 0 0 1-.504.024c-.88 0-1.536-.208-1.968-.624-.416-.432-.624-1.152-.624-2.16l.264.12c-.176.832-.688 1.52-1.536 2.064-.848.544-1.848.816-3 .816Zm.432-2.016c.752 0 1.4-.144 1.944-.432.56-.304.984-.72 1.272-1.248.304-.528.456-1.128.456-1.8v-.816l-3.72.72c-.752.144-1.296.368-1.632.672-.32.304-.48.704-.48 1.2 0 .544.184.968.552 1.272.384.288.92.432 1.608.432Zm9.146-15.312h2.544v10.584l5.736-6.312h3.216l-4.992 5.376L194.229 56h-2.928l-3.96-5.808-2.256 2.4V56h-2.544V38.96Zm17.85 17.328c-1.216 0-2.28-.272-3.192-.816-.912-.544-1.616-1.32-2.112-2.328-.496-1.008-.744-2.184-.744-3.528 0-1.328.248-2.496.744-3.504.496-1.024 1.192-1.808 2.088-2.352.896-.544 1.944-.816 3.144-.816 1.168 0 2.192.272 3.072.816.88.528 1.56 1.304 2.04 2.328.496 1.008.744 2.216.744 3.624v.648h-9.168c.048 1.216.368 2.144.96 2.784.608.64 1.424.96 2.448.96.752 0 1.376-.168 1.872-.504.496-.336.848-.816 1.056-1.44l2.64.168c-.336 1.216-1.008 2.184-2.016 2.904-.992.704-2.184 1.056-3.576 1.056Zm3.072-7.848c-.08-1.104-.4-1.936-.96-2.496-.544-.56-1.272-.84-2.184-.84-.912 0-1.664.288-2.256.864-.576.576-.928 1.4-1.056 2.472h6.456Z" fill="#4A43CE"/><defs><clipPath id="a"><path fill="#fff" transform="translate(20.5 20)" d="M0 0h56v56H0z"/></clipPath></defs></svg>