<svg width="265" height="96" fill="none" xmlns="http://www.w3.org/2000/svg"><path d="M55.435 46.198 44.436 49.73l-9.58 4.146-2.674.696A39.073 39.073 0 0 1 30 56.498a94.648 94.648 0 0 1-2.238 1.846c-.682.535-1.665 1.498-2.183 2.113-.764.937-1.365 1.926-1.61 2.675-.464 1.365-.246 2.756.655 4.04 1.118 1.632 3.384 3.29 6.004 4.414 1.337.589 3.602 1.311 5.294 1.739 2.811.696 8.27 1.471 11.272 1.578.6.027 1.419.027 1.446 0 .055-.053.546-.91 1.064-2.006 1.856-3.692 3.166-7.17 3.903-10.112.437-1.793.764-4.174 1.01-7.01.055-.802.082-3.45.027-4.333a35.192 35.192 0 0 0-.41-3.826c-.026-.16-.054-.32-.026-.32.027-.028.136-.054 1.5-.429l-.272-.669Zm-2.511 1.445c.11 0 .355 2.515.437 4.093.027.321 0 .562 0 .562-.055 0-1.392-.776-2.375-1.365-.819-.508-2.401-1.551-2.647-1.739-.082-.053-.082-.053.6-.294 1.147-.401 3.876-1.257 3.985-1.257Zm-5.622 1.819c.082 0 .273.107.737.375 1.72 1.043 4.039 2.327 5.049 2.755.3.134.327.08-.355.562-1.501 1.016-3.411 2.006-5.704 2.996-.41.187-.737.321-.764.321-.028 0 .027-.214.109-.455.546-2.033.873-4.093.9-5.725-.054-.829-.054-.829.028-.829Zm-1.146.428c.054.054.027 1.873-.055 2.381-.136 1.177-.382 2.3-.764 3.558-.082.294-.164.562-.191.562-.027.053-1.174-1.044-1.556-1.471a10.663 10.663 0 0 1-1.528-2.194c-.191-.375-.491-1.097-.464-1.097.136-.107 4.53-1.766 4.558-1.739Zm-5.431 2.087c.054.027.109.16.136.294.273.722.873 1.766 1.392 2.408.573.722 1.31 1.525 1.91 2.033.191.16.382.32.41.348.054.053.054.053-1.283.535a103.65 103.65 0 0 1-5.24 1.792c-.464.16-.928.294-1.392.455-.082.027-.054-.027.164-.348.982-1.498 2.456-4.414 3.275-6.5.136-.349.273-.723.3-.803.027-.107.082-.16.191-.214.055.027.11 0 .137 0Zm-1.665.669c.027.026-.41.882-.819 1.685-.819 1.552-1.692 3.05-2.865 4.896a8.553 8.553 0 0 1-.41.642c-.055.053-.055.053-.191-.214a7.09 7.09 0 0 1-.628-1.9c-.136-.642-.109-1.739.055-2.434.11-.508.11-.508.355-.615 1.01-.509 4.448-2.087 4.503-2.06Zm14.328.588v.348c0 1.819-.191 4.307-.491 6.126-.055.321-.082.589-.11.589 0 0-.245-.054-.518-.134a20.356 20.356 0 0 1-3.82-1.605c-.82-.428-1.993-1.15-1.939-1.177 0 0 .355-.188.765-.402a50.498 50.498 0 0 0 4.557-2.621 19.91 19.91 0 0 0 1.447-1.017l.109-.107Zm-20.605 2.408c.027 0 .027.053-.028.348-.027.214-.081.615-.081.882-.055 1.178.136 2.06.736 3.264.164.321.3.615.3.615-.054.054-5.567 1.632-7.286 2.087-.519.134-.955.268-1.01.268-.055.026-.055 0-.055-.134.191-1.204 1.12-2.756 2.43-4.093.873-.883 1.555-1.391 2.729-2.06.846-.428 2.128-1.15 2.265-1.177-.028 0-.028 0 0 0Zm12.963 2.274s.219.107.437.24c1.774 1.017 4.257 1.953 6.359 2.435l.19.053-.272.134c-1.119.616-4.749 2.087-8.46 3.451-.546.188-1.065.402-1.174.428-.11.054-.191.054-.191.054s.137-.294.328-.642c1.037-1.9 2.074-4.227 2.62-5.832.109-.188.163-.321.163-.321Zm-1.31.428s-.054.187-.136.374a52.91 52.91 0 0 1-2.893 5.698c-.3.536-.573.964-.573.964s-.246-.134-.546-.321c-1.774-1.07-3.33-2.355-4.34-3.639l-.136-.187.764-.214c2.702-.722 5.022-1.498 7.314-2.461.246-.107.519-.214.546-.214Zm8.215 2.809c0 .187-.41 1.872-.764 3.076-.3 1.017-.546 1.82-1.01 3.237-.191.616-.382 1.124-.382 1.124s-.055 0-.11-.027c-2.455-.428-4.693-1.043-6.767-1.873-.574-.24-1.42-.588-1.474-.642-.027-.026.491-.24 1.119-.508 3.793-1.632 7.696-3.45 9.06-4.254.164-.08.3-.133.328-.133Zm-18.968.642c.028.027-1.037 1.498-2.51 3.531-.519.722-1.12 1.552-1.338 1.846-.218.321-.573.803-.764 1.097l-.355.535-.382-.321c-.436-.348-1.2-1.124-1.555-1.552-.71-.883-1.201-1.792-1.392-2.621-.082-.402-.082-.589 0-.616.136-.027 2.347-.535 4.421-1.016 1.146-.268 2.483-.562 2.975-.696.491-.107.873-.187.9-.187Zm1.065.401.273.294a15.972 15.972 0 0 0 3.902 3.13c.273.134.464.268.437.295-.055.053-5.13 1.819-7.505 2.595-1.31.454-2.402.829-2.43.829l-.163-.107-.136-.107.245-.348c.792-1.097 1.774-2.327 3.903-4.842l1.474-1.739Zm6.632 4.655s.382.134.818.294c1.092.402 1.938.642 3.084.937 1.42.347 3.466.695 4.667.802.191.027.273.027.246.054-.055.026-1.283.428-2.184.722a529.18 529.18 0 0 1-9.36 2.702c-.656.187-1.229.348-1.256.348-.082.027-.355-.054-.355-.08 0-.027.191-.268.437-.536 1.2-1.39 2.374-2.97 3.384-4.44.273-.482.519-.803.519-.803Zm-1.474.027s-.573.936-1.61 2.541c-.437.669-.928 1.445-1.12 1.712-.163.268-.409.67-.545.91l-.246.428-.136-.027c-.3-.08-2.402-.802-2.948-1.016a18.649 18.649 0 0 1-1.937-.883c-.655-.348-1.501-.883-1.42-.883.028 0 1.147-.321 2.539-.669 3.63-.963 5.649-1.525 6.986-1.953.218-.107.437-.16.437-.16Zm10.343 2.38c.055.081-1.31 3.746-1.8 4.896-.11.268-.137.321-.22.321-.136 0-2.1-.267-3.274-.454-2.074-.321-5.54-.91-6.414-1.097l-.19-.054 1.227-.267c2.675-.589 3.93-.91 5.24-1.284a36.356 36.356 0 0 0 4.886-1.846c.273-.107.49-.214.545-.214ZM44.081 21.078c-.19-.027-3.138 1.016-5.048 1.765-2.566 1.017-4.558 2.007-5.786 2.863-.464.32-1.037.883-1.12 1.097a.934.934 0 0 0-.054.267l1.12 1.043 2.647.83 6.304 1.097 7.205 1.204.082-.616h-.055l-.955-.134-.191-.32c-.983-1.686-2.074-3.8-2.702-5.217-.491-1.097-.955-2.381-1.2-3.29-.137-.563-.165-.59-.247-.59Zm-.136.4c.027 0 .055.242.082.51.136 1.15.41 2.246.819 3.424.3.91.3.856-.055.749-.846-.241-4.64-.883-7.396-1.258-.437-.053-.819-.107-.819-.133-.027-.027 1.993-1.07 2.866-1.472 1.146-.508 4.285-1.766 4.503-1.82Zm-8.024 3.666.328.107c1.774.589 6.195 1.418 8.651 1.605.273.027.519.054.519.054s-.218.133-.519.267c-1.173.589-2.483 1.284-3.384 1.846-.273.16-.518.294-.546.294-.027 0-.218-.026-.382-.053l-.327-.054-.819-.802c-1.474-1.391-2.62-2.461-3.057-2.89l-.464-.374Zm-.327.24 1.173 1.445c.628.803 1.283 1.552 1.42 1.74.136.16.245.32.245.32-.027.027-1.692-.294-2.565-.481-.9-.214-1.283-.295-1.829-.482l-.464-.133v-.107c0-.536.71-1.365 1.91-2.194l.11-.107Zm9.961 1.954c.028 0 .082.08.164.294.273.615 1.174 2.247 1.392 2.568.055.107.19.107-.983-.08-2.81-.455-3.711-.589-3.711-.615 0 0 .082-.054.19-.134a17.502 17.502 0 0 0 2.539-1.712c.191-.16.355-.295.41-.321Z" fill="#B0ADE8"/><path d="M32.182 26.669s-.19.294 0 .722c.11.268.437.589.792.91 0 0 3.711 3.531 4.148 4.04 2.047 2.327 2.947 4.6 3.03 7.73.054 2.034-.328 3.8-1.31 5.86-1.72 3.691-5.377 7.785-11 12.306l.82-.268c.518-.401 1.255-.803 2.947-1.712 3.93-2.113 8.324-4.04 13.728-6.02 7.778-2.862 20.578-6.233 27.864-7.33l.765-.106-.11-.188a23.119 23.119 0 0 0-1.664-2.3c-1.583-1.953-3.521-3.505-5.895-4.816-3.248-1.792-7.478-3.183-12.827-4.227-1.01-.187-3.22-.561-5.022-.829-3.82-.588-6.277-.99-8.979-1.445-.983-.16-2.429-.4-3.384-.615-.491-.107-1.447-.32-2.21-.588-.656-.188-1.502-.428-1.693-1.124Zm2.156 2.06s.137.053.328.107c.327.107.737.24 1.2.348.355.107.737.187 1.092.294.491.134.928.24.928.24.055.054.9 2.703 1.174 3.692.109.375.19.723.19.723s-.108-.134-.218-.321c-.982-1.686-2.51-3.371-4.284-4.762-.246-.187-.41-.321-.41-.321Zm4.094 1.097c.054 0 .218.026.437.08 1.419.321 3.957.776 5.567 1.043.273.054.491.08.491.107 0 .027-.109.08-.218.134-.273.134-1.392.776-1.747 1.017-.928.615-1.746 1.257-2.347 1.846l-.436.428s-.055-.134-.082-.321c-.3-1.124-.928-2.81-1.501-3.986-.11-.161-.191-.348-.164-.348-.027 0-.027 0 0 0Zm7.178 1.337c.054.027.136.295.3.91.3 1.177.437 2.515.41 3.745-.028.348-.028.669-.055.696l-.028.08-.436-.134c-.901-.267-2.347-.695-3.576-1.043-.71-.187-1.282-.348-1.282-.375 0-.053 1.037-1.07 1.474-1.444.846-.722 3.138-2.461 3.193-2.435Zm.573.08c.027-.026 3.438.562 4.994.857 1.146.214 2.838.561 2.948.615.054.027-.137.107-.683.348-2.183.963-3.82 1.846-5.458 2.889-.437.267-.791.508-.791.508s-.028-.24-.028-.508c0-1.552-.327-3.103-.9-4.44-.028-.135-.082-.242-.082-.268Zm8.842 1.713c.028.026-.082.695-.19 1.07-.301 1.204-1.12 3.023-2.102 4.708a4.737 4.737 0 0 1-.355.562c-.027 0-.246-.107-.491-.267-.956-.562-2.075-1.07-3.248-1.552-.328-.134-.628-.24-.628-.268-.054-.053 2.62-1.792 4.04-2.621 1.118-.67 2.947-1.659 2.974-1.632Zm.628.107c.082 0 1.583.401 2.374.642 1.965.562 4.203 1.364 5.65 2.033l.6.267-.437.107c-3.575.803-6.632 1.74-9.579 2.916-.246.108-.464.188-.464.188-.027 0 .055-.188.164-.428.9-1.846 1.474-3.772 1.61-5.431.055-.16.082-.294.082-.294ZM40.588 36.46c.027-.026 1.173.241 1.801.428.955.268 2.948.91 2.948.963 0 0-.219.188-.492.428-1.091.883-2.128 1.82-3.384 3.023-.382.348-.682.642-.71.642-.027 0-.027-.053-.027-.107.191-1.364.137-3.13-.109-4.922 0-.267-.027-.455-.027-.455Zm24.29.027c.027.027-.546.856-.874 1.338-.491.695-1.228 1.631-2.893 3.665-.873 1.07-1.856 2.3-2.183 2.702-.328.401-.6.749-.628.749 0 0-.109-.134-.245-.321a17.096 17.096 0 0 0-3.357-3.639c-.246-.214-.519-.428-.628-.481-.082-.054-.164-.134-.164-.134 0-.027 1.42-.615 2.484-1.043 1.883-.75 4.448-1.659 6.359-2.22 1.037-.349 2.128-.643 2.128-.616Zm.654.16c.028 0 .246.08.464.241 2.02 1.124 4.012 2.595 5.568 4.093.437.428 1.528 1.525 1.5 1.552 0 0-.381.027-.818.053-3.493.268-7.969.99-12.281 2.007-.3.053-.546.134-.573.134-.027 0 .3-.321.71-.696 2.538-2.38 3.684-3.906 5.048-6.58.191-.456.355-.777.382-.803-.027 0-.027 0 0 0Zm-18.53 1.846c.109.027 1.2.535 2.019.91.737.375 1.883.963 1.938.99 0 0-.382.214-.874.455a71.61 71.61 0 0 0-4.312 2.327c-.409.24-.737.428-.737.428-.027 0-.027-.027.191-.428.737-1.337 1.338-2.943 1.693-4.494.027-.107.054-.188.081-.188Zm-1.065.215c.027.026-.245 1.016-.437 1.578-.327 1.043-.928 2.327-1.473 3.317-.137.24-.328.562-.437.75l-.218.32-.464-.428c-.546-.508-.983-.83-1.556-1.123-.218-.107-.41-.214-.41-.241 0-.054 1.42-1.338 2.512-2.247.791-.67 2.456-1.953 2.483-1.926Zm6.605 2.648.409.267c.928.589 2.02 1.392 2.866 2.087.464.375 1.392 1.177 1.583 1.391l.109.107-.683.188c-3.82 1.043-6.74 1.952-10.18 3.183-.381.134-.709.24-.736.24-.055 0-.082.054.764-.722 2.183-1.98 4.148-4.173 5.595-6.286l.273-.455Zm-1.747.428c.027.027-1.119 1.578-1.801 2.488a115.514 115.514 0 0 1-3.248 3.986c-.41.482-.764.883-.791.883-.028 0-.028-.107-.028-.294 0-.99-.245-2.034-.71-2.943-.19-.375-.218-.455-.19-.509.163-.133 2.565-1.498 4.12-2.3 1.01-.535 2.62-1.338 2.648-1.311Zm-10.507 2.515c.027 0 .218.107.436.214.519.294 1.01.615 1.42.936.027.027-.191.187-.492.401a84.913 84.913 0 0 0-2.674 1.98c-.737.562-.764.589-.683.455.546-.83.82-1.284 1.12-1.873.245-.535.518-1.15.709-1.712.055-.214.136-.401.164-.401Zm2.81 2.167c.055 0 .083.053.328.4.464.697.846 1.633.928 2.382l.028.16-1.147.428a102.76 102.76 0 0 0-5.185 2.114c-.355.16-.983.455-1.392.642-.41.214-.737.348-.737.348s.246-.188.573-.428c2.484-1.766 4.64-3.719 6.25-5.645.164-.214.328-.401.355-.401Zm-1.282.294c.027.027-.928 1.097-1.556 1.739a28.22 28.22 0 0 1-5.158 4.093c-.245.16-.464.294-.49.32-.056.028.026-.053.872-.962.546-.589.956-1.07 1.447-1.659.327-.401.382-.455.819-.776 1.2-.91 4.011-2.782 4.066-2.755ZM94.564 38.96h3.552l5.064 13.992 5.064-13.992h3.552V56h-2.592V43.52l-4.584 12.456h-2.88L97.156 43.52V56h-2.592V38.96Zm19.782 4.272h2.544V56h-2.544V43.232Zm-.048-4.392h2.664v2.544h-2.664V38.84Zm10.773 17.448c-1.216 0-2.28-.272-3.192-.816-.912-.544-1.624-1.32-2.136-2.328-.496-1.024-.744-2.2-.744-3.528 0-1.328.248-2.496.744-3.504.512-1.024 1.224-1.808 2.136-2.352.912-.544 1.976-.816 3.192-.816 1.024 0 1.936.184 2.736.552.816.352 1.48.88 1.992 1.584.512.688.832 1.52.96 2.496l-2.64.144c-.128-.816-.464-1.448-1.008-1.896-.544-.448-1.224-.672-2.04-.672-1.072 0-1.912.392-2.52 1.176-.608.784-.912 1.88-.912 3.288s.304 2.504.912 3.288c.608.784 1.448 1.176 2.52 1.176.816 0 1.496-.232 2.04-.696.544-.464.88-1.152 1.008-2.064l2.64.144c-.128.976-.448 1.824-.96 2.544a5.031 5.031 0 0 1-1.968 1.68c-.816.4-1.736.6-2.76.6Zm7.452-13.056h2.328l.096 3.384-.216-.072c.176-1.136.528-1.968 1.056-2.496.528-.544 1.256-.816 2.184-.816h1.224v2.28h-1.224c-.656 0-1.2.112-1.632.336a2.144 2.144 0 0 0-.96.96c-.208.432-.312.984-.312 1.656V56h-2.544V43.232Zm13.35 13.056c-1.216 0-2.28-.272-3.192-.816-.912-.544-1.624-1.32-2.136-2.328-.496-1.008-.744-2.184-.744-3.528 0-1.344.248-2.52.744-3.528.512-1.008 1.224-1.784 2.136-2.328.912-.544 1.976-.816 3.192-.816 1.2 0 2.256.272 3.168.816.912.544 1.616 1.32 2.112 2.328.512 1.008.768 2.184.768 3.528 0 1.344-.256 2.52-.768 3.528-.496 1.008-1.2 1.784-2.112 2.328-.912.544-1.968.816-3.168.816Zm0-2.208c1.072 0 1.904-.392 2.496-1.176.608-.8.912-1.896.912-3.288s-.304-2.48-.912-3.264c-.592-.8-1.424-1.2-2.496-1.2s-1.912.392-2.52 1.176c-.608.784-.912 1.88-.912 3.288s.304 2.504.912 3.288c.608.784 1.448 1.176 2.52 1.176Zm13.03 2.208c-1.168 0-2.176-.176-3.024-.528-.832-.368-1.48-.872-1.944-1.512-.448-.656-.704-1.416-.768-2.28l2.64-.12c.112.736.416 1.304.912 1.704.512.4 1.24.6 2.184.6.816 0 1.448-.128 1.896-.384.464-.272.696-.68.696-1.224 0-.32-.08-.584-.24-.792-.16-.208-.456-.384-.888-.528-.432-.16-1.072-.312-1.92-.456-1.248-.224-2.24-.496-2.976-.816-.72-.336-1.232-.744-1.536-1.224-.304-.496-.456-1.104-.456-1.824 0-1.184.448-2.136 1.344-2.856.896-.736 2.152-1.104 3.768-1.104 1.568 0 2.8.392 3.696 1.176.912.768 1.464 1.776 1.656 3.024l-2.616.144c-.128-.688-.432-1.224-.912-1.608-.464-.4-1.08-.6-1.848-.6-.8 0-1.408.16-1.824.48-.416.304-.624.72-.624 1.248 0 .384.088.696.264.936.192.24.488.44.888.6.416.144.984.272 1.704.384 1.328.224 2.36.496 3.096.816.736.32 1.264.72 1.584 1.2.32.464.48 1.056.48 1.776 0 1.184-.488 2.112-1.464 2.784-.96.656-2.216.984-3.768.984Zm12.553 0c-1.216 0-2.28-.272-3.192-.816-.912-.544-1.624-1.32-2.136-2.328-.496-1.008-.744-2.184-.744-3.528 0-1.344.248-2.52.744-3.528.512-1.008 1.224-1.784 2.136-2.328.912-.544 1.976-.816 3.192-.816 1.2 0 2.256.272 3.168.816.912.544 1.616 1.32 2.112 2.328.512 1.008.768 2.184.768 3.528 0 1.344-.256 2.52-.768 3.528-.496 1.008-1.2 1.784-2.112 2.328-.912.544-1.968.816-3.168.816Zm0-2.208c1.072 0 1.904-.392 2.496-1.176.608-.8.912-1.896.912-3.288s-.304-2.48-.912-3.264c-.592-.8-1.424-1.2-2.496-1.2s-1.912.392-2.52 1.176c-.608.784-.912 1.88-.912 3.288s.304 2.504.912 3.288c.608.784 1.448 1.176 2.52 1.176Zm9.006-11.664c0-1.088.304-1.936.912-2.544.608-.608 1.528-.912 2.76-.912h2.256v2.088h-1.92c-.496 0-.864.128-1.104.384-.24.256-.36.632-.36 1.128V56h-2.544V42.416Zm-1.776.984h7.512v2.064h-7.512V43.4ZM193.303 56c-1.216 0-2.112-.28-2.688-.84-.576-.56-.864-1.432-.864-2.616V40.232h2.544v12.12c0 .576.12.984.36 1.224.256.224.656.336 1.2.336h1.824V56h-2.376Zm-5.496-12.768h7.872v2.088h-7.872v-2.088Zm16.227 13.152c-1.344 0-2.52-.24-3.528-.72a6.082 6.082 0 0 1-2.376-2.064c-.576-.896-.912-1.928-1.008-3.096l2.664-.168c.112.8.344 1.48.696 2.04.352.544.824.96 1.416 1.248.608.272 1.336.408 2.184.408 1.12 0 1.976-.208 2.568-.624.608-.432.912-1.04.912-1.824 0-.512-.12-.952-.36-1.32-.24-.368-.688-.704-1.344-1.008-.64-.304-1.576-.608-2.808-.912-1.408-.336-2.512-.704-3.312-1.104-.784-.4-1.36-.896-1.728-1.488-.352-.592-.528-1.336-.528-2.232 0-.96.232-1.816.696-2.568.48-.752 1.16-1.336 2.04-1.752.896-.416 1.952-.624 3.168-.624 1.264 0 2.36.24 3.288.72a5.542 5.542 0 0 1 2.208 1.944c.544.832.88 1.792 1.008 2.88l-2.64.144a4.291 4.291 0 0 0-.624-1.728 3.138 3.138 0 0 0-1.32-1.176c-.544-.288-1.2-.432-1.968-.432-.976 0-1.752.232-2.328.696-.576.448-.864 1.048-.864 1.8 0 .496.112.904.336 1.224.24.32.648.6 1.224.84s1.44.496 2.592.768c1.456.336 2.616.744 3.48 1.224.88.48 1.504 1.048 1.872 1.704.384.64.576 1.392.576 2.256 0 .992-.264 1.864-.792 2.616-.512.736-1.24 1.312-2.184 1.728-.928.4-2 .6-3.216.6Zm18.797-.552c-.832.368-1.832.552-3 .552-1.6 0-3-.384-4.2-1.152-1.184-.784-2.096-1.848-2.736-3.192-.624-1.344-.936-2.856-.936-4.536 0-1.696.304-3.216.912-4.56.624-1.36 1.528-2.424 2.712-3.192 1.2-.784 2.616-1.176 4.248-1.176 1.664 0 3.088.392 4.272 1.176 1.2.768 2.104 1.832 2.712 3.192.608 1.344.912 2.864.912 4.56 0 1.568-.28 2.992-.84 4.272-.544 1.28-1.328 2.32-2.352 3.12l2.16 2.712h-2.496l-1.368-1.776Zm-3-1.824c.656 0 1.144-.072 1.464-.216l-2.424-3.048h2.472l1.632 2.16c.688-.576 1.2-1.312 1.536-2.208.352-.896.528-1.96.528-3.192 0-1.232-.192-2.336-.576-3.312-.384-.992-.968-1.776-1.752-2.352-.784-.592-1.744-.888-2.88-.888-1.12 0-2.072.296-2.856.888-.768.576-1.352 1.36-1.752 2.352-.384.976-.576 2.08-.576 3.312 0 1.216.192 2.32.576 3.312.4.976.992 1.752 1.776 2.328.784.576 1.728.864 2.832.864Zm10.086-15.048h2.592v16.08l-1.368-1.416h9.672V56h-10.896V38.96Z" fill="#4A43CE"/></svg>