<svg width="180" height="72" fill="none" xmlns="http://www.w3.org/2000/svg"><g fill-rule="evenodd" clip-rule="evenodd" fill="#0F0F10" fill-opacity=".64"><path d="M110.841 24.077c.693-3.882-1.894-6.932-4.899-9.15-4.205-3.096-8.964-4.945-13.863-6.377v51.204c2.172-1.895 4.344-4.02 6.423-6.193 4.437-4.898 8.55-9.89 10.259-15.897.693-2.726.324-5.823-1.987-7.671 1.988-1.572 3.789-3.513 4.067-5.916Zm-8.457 17.7c-1.525 2.773-3.605 5.314-6.055 7.67l-.046-14.649c1.664-1.201 3.374-2.264 5.454-2.45.832 0 1.571.278 2.125.925 1.85 2.911-.323 5.962-1.478 8.504Zm4.206-18.855c-.417 2.31-2.958 3.65-4.761 4.62-1.802.925-3.65 1.664-5.546 2.357V14.927c2.913.878 5.546 2.357 8.042 4.113 1.155.97 2.727 2.172 2.265 3.882Zm-18.3 36.462V8.364l-4.114 2.126V37.85c-.184.785.37 1.987-.508 2.356-.231.047-.416-.046-.509-.23-1.756-6.61-2.495-13.587-2.819-20.75l-.138-6.24-3.928 2.913v1.663c.23 6.609.693 13.078 1.94 19.271l-1.57 1.756c-.601-.831-.97-1.71-1.387-2.588-1.987-5.268-2.727-11.045-3.004-17.006l-3.42 2.542c.324 9.058 2.034 17.607 7.533 24.4 1.063-1.201 2.126-2.45 3.19-3.604.554 2.45 1.34 4.806 2.264 7.116 1.524 3.559 3.234 7.163 6.47 9.936Z"/><path d="m119.76 15.065-6.147-1.524-1.109-4.16-6.285-1.479-1.293-4.528L90.091 0 75.534 3.373l-1.294 4.53-6.285 1.478c-.416 1.432-.785 2.819-1.155 4.205l-6.147 1.479c-.462 13.078 3.143 24.585 9.659 34.845 4.76 7.347 11.923 15.111 19.78 18.947 5.313-2.542 10.028-6.794 14.279-11.554 10.306-11.922 15.943-25.878 15.389-42.238Zm-18.116 39.56c-3.373 3.789-7.163 7.532-11.414 9.704-4.067-2.034-7.625-5.546-10.86-9.104-8.41-9.844-14.003-20.842-14.927-33.736a24.325 24.325 0 0 1-.093-3.189l5.223-1.2 1.201-4.299 6.424-1.524.046-.14L78.4 6.702l11.646-2.726L102.06 6.7l1.156 4.529 6.516 1.571 1.109 4.298 5.268 1.201c-.139 14.049-5.731 25.833-14.465 36.324Zm1.942 13.724c.693-.046 1.155-.416 1.155-1.202 0-.877-.555-1.293-1.618-1.293h-1.663v4.436h.738v-1.895h.693l1.156 1.895h.786l-1.247-1.94Zm-1.387-.554v-1.34h.878c.416 0 .924.092.924.646 0 .601-.462.694-1.017.694h-.785Z"/><path d="M103.031 64.42a3.806 3.806 0 0 0-3.789 3.79c0 2.08 1.71 3.79 3.789 3.79 2.08 0 3.79-1.71 3.79-3.79s-1.71-3.79-3.79-3.79Zm0 7.21a3.413 3.413 0 0 1-3.42-3.42 3.412 3.412 0 0 1 3.42-3.42 3.412 3.412 0 0 1 3.42 3.42 3.423 3.423 0 0 1-.999 2.42 3.41 3.41 0 0 1-2.421 1Z"/></g></svg>