<svg width="180" height="72" fill="none" xmlns="http://www.w3.org/2000/svg"><g fill="#0F0F10"><path d="M96.573 18.814c-1.752.89-2.512 2.552-2.512 7.062 0 0 .876-.89 2.278-1.424 1.023-.386 1.753-.89 2.279-1.276 1.519-1.157 1.752-2.552 1.752-4.985-.029 0-2.424-.148-3.797.623Z" fill-opacity=".24"/><path d="M85.852 19.853c-1.52 1.275-1.899 3.471-1.899 3.471l-4.907 19.108-4.031-15.636c-.38-1.662-1.14-3.71-2.278-5.133-1.402-1.81-4.323-1.93-4.674-1.93-.263 0-3.154.12-4.673 1.93-1.14 1.424-1.899 3.471-2.279 5.133l-3.797 15.636-4.907-19.108s-.38-2.047-1.899-3.471c-2.395-2.196-5.93-1.662-5.93-1.662l9.348 35.754s3.038.267 4.556-.505c2.016-1.038 3.038-1.78 4.177-6.676 1.14-4.361 4.177-17.06 4.411-17.95.117-.387.38-1.544 1.14-1.544.759 0 1.022 1.039 1.138 1.543.263.89 3.272 13.59 4.411 17.951 1.256 4.866 2.132 5.638 4.177 6.676 1.519.772 4.557.505 4.557.505L91.78 18.19s-3.534-.504-5.93 1.662Zm14.488 4.094s-.643.89-1.899 1.662c-.876.504-1.636.771-2.512 1.276-1.519.771-1.899 1.542-1.899 2.7v24.24s2.396.268 3.915-.504c2.015-1.038 2.395-2.047 2.395-6.408V23.947Zm23.221 12.195L135.42 18.31s-4.907-.89-7.448 1.424c-1.636 1.424-3.271 4.094-3.271 4.094l-4.294 6.41c-.263.385-.497.652-.877.652-.379 0-.759-.386-.876-.653l-4.294-6.409s-1.752-2.551-3.271-4.094c-2.512-2.315-7.449-1.424-7.449-1.424l11.48 17.802-11.742 17.803s5.17.653 7.711-1.662c1.636-1.424 3.154-3.857 3.154-3.857l4.294-6.409c.263-.386.497-.653.877-.653.379 0 .759.386.876.653l4.294 6.41s1.635 2.432 3.154 3.856c2.512 2.315 7.566 1.662 7.566 1.662l-11.743-17.773Z" fill-opacity=".64"/></g></svg>