<?xml version="1.0" standalone="no"?>
<!DOCTYPE svg PUBLIC "-//W3C//DTD SVG 20010904//EN"
 "http://www.w3.org/TR/2001/REC-SVG-20010904/DTD/svg10.dtd">
<svg version="1.0" xmlns="http://www.w3.org/2000/svg"
 width="1024.000000pt" height="1024.000000pt" viewBox="0 0 1024.000000 1024.000000"
 preserveAspectRatio="xMidYMid meet">
<metadata>
Created by potrace 1.14, written by Peter Selinger 2001-2017
</metadata>
<g transform="translate(0.000000,1024.000000) scale(0.100000,-0.100000)"
fill="#000000" stroke="none">
<path d="M4339 10233 c-1 -11 -5 -78 -13 -203 -4 -58 -9 -118 -11 -135 -2 -16
-7 -57 -11 -90 -13 -126 -16 -145 -28 -227 -3 -21 -8 -55 -11 -75 -3 -21 -10
-65 -16 -98 -5 -33 -12 -69 -14 -80 -1 -11 -6 -38 -11 -60 -4 -22 -9 -49 -10
-60 -1 -11 -3 -20 -4 -20 -2 0 -9 -26 -15 -65 -4 -19 -10 -51 -15 -70 -5 -19
-12 -49 -15 -67 -3 -18 -10 -45 -16 -60 -6 -15 -10 -29 -10 -31 2 -4 -10 -53
-41 -167 -17 -60 -31 -114 -33 -120 -1 -5 -5 -17 -8 -25 -3 -8 -13 -40 -22
-70 -21 -69 -83 -247 -98 -280 -6 -14 -11 -27 -11 -30 -5 -25 -125 -300 -179
-408 -29 -56 -60 -119 -71 -140 -21 -43 -157 -275 -166 -282 -3 -3 -36 -52
-75 -110 -93 -140 -217 -314 -227 -318 -4 -2 -8 -10 -8 -17 0 -7 -3 -15 -8
-17 -4 -1 -30 -32 -57 -68 -75 -100 -142 -186 -224 -290 -42 -52 -83 -103 -91
-114 -8 -10 -31 -37 -50 -60 -19 -23 -71 -87 -115 -141 -44 -55 -82 -102 -85
-105 -11 -10 -200 -249 -286 -361 -119 -156 -199 -268 -253 -353 -25 -39 -48
-73 -52 -76 -3 -3 -14 -18 -23 -35 -9 -16 -25 -43 -36 -60 -20 -32 -23 -37
-95 -165 -41 -73 -98 -188 -177 -357 -11 -23 -19 -45 -19 -48 1 -3 -6 -19 -15
-36 -18 -35 -80 -202 -100 -269 -7 -25 -25 -83 -39 -130 -14 -47 -27 -95 -30
-108 -2 -13 -9 -38 -14 -55 -6 -18 -12 -43 -15 -57 -2 -14 -9 -45 -15 -70 -7
-25 -13 -56 -16 -70 -2 -14 -9 -47 -15 -75 -6 -27 -13 -68 -16 -90 -5 -48 -10
-80 -19 -119 -3 -15 -8 -49 -10 -75 -2 -25 -5 -46 -5 -46 -1 0 -3 -18 -5 -40
-3 -21 -7 -53 -9 -70 -28 -178 -28 -718 -1 -940 6 -50 44 -281 49 -300 2 -5 6
-23 10 -40 26 -106 37 -148 56 -210 25 -85 25 -86 33 -107 4 -10 10 -26 14
-35 3 -10 7 -22 8 -28 9 -37 132 -313 145 -325 3 -3 18 -30 34 -60 132 -250
372 -540 616 -740 23 -19 51 -43 61 -52 10 -10 23 -18 28 -18 5 0 11 -3 13 -8
6 -13 140 -107 243 -169 123 -74 311 -170 420 -213 100 -40 130 -51 200 -74
44 -14 91 -28 105 -30 14 -3 25 -5 25 -6 0 -1 7 -3 16 -5 11 -2 -13 55 -77
184 -86 173 -134 275 -134 285 0 2 -10 25 -22 52 -12 27 -23 51 -23 54 -1 3
-4 12 -7 20 -8 21 -15 44 -17 53 0 4 -7 20 -15 35 -14 27 -114 318 -121 350
-2 9 -14 58 -28 107 -37 135 -49 184 -73 310 -19 95 -24 128 -29 175 -2 19 -5
35 -6 35 -1 0 -3 9 -4 20 -1 11 -6 43 -9 71 -4 28 -8 76 -10 106 -2 31 -6 60
-8 64 -7 11 -2 475 5 529 3 22 8 65 12 95 3 30 8 62 10 70 3 8 7 35 10 59 3
23 7 46 10 51 2 4 6 22 9 41 2 19 18 90 36 159 18 69 33 132 35 140 2 8 4 16
5 18 2 1 3 5 4 10 12 46 28 100 33 112 4 8 7 17 7 20 1 3 6 19 13 35 6 17 18
53 27 81 55 179 242 577 383 812 25 43 51 86 57 97 6 11 19 31 28 45 8 14 49
77 90 140 41 63 105 158 141 210 37 52 73 103 80 113 6 10 47 67 89 125 90
124 90 124 157 217 28 39 56 78 63 87 7 9 20 26 28 38 8 12 40 56 71 99 49 67
302 440 336 496 117 191 143 235 143 244 0 6 4 11 9 11 5 0 11 8 14 18 3 9 19
40 35 67 66 115 172 334 227 470 20 50 43 104 51 122 8 17 14 33 14 36 0 3 5
18 12 34 6 15 12 30 13 33 1 3 15 48 32 100 29 88 75 259 87 320 3 14 8 36 11
50 7 27 9 41 19 110 4 25 9 56 12 70 31 162 36 537 8 770 -2 19 -6 58 -9 85
-3 28 -7 61 -10 75 -6 25 -11 50 -19 92 -9 44 -25 123 -30 143 -3 11 -10 40
-16 65 -6 25 -29 104 -52 175 -23 72 -43 132 -43 135 -1 3 -5 14 -10 25 -4 11
-23 56 -41 100 -18 44 -45 107 -60 140 -15 33 -28 62 -29 65 -1 7 -61 123
-103 200 -19 36 -42 73 -50 83 -8 9 -11 17 -6 17 5 0 4 4 -1 8 -13 9 -75 110
-75 122 0 5 -3 10 -8 12 -4 2 -27 32 -51 68 -24 36 -48 67 -53 68 -4 2 -8 8
-8 14 0 6 -10 22 -22 37 -13 15 -34 42 -48 61 -14 18 -30 38 -35 44 -6 6 -32
37 -58 69 -26 33 -47 55 -48 50z"/>
<path d="M6394 8279 c0 -53 -13 -242 -18 -284 -3 -16 -7 -61 -10 -100 -4 -38
-8 -81 -11 -95 -2 -14 -7 -46 -9 -72 -3 -26 -8 -63 -11 -82 -3 -20 -7 -52 -10
-72 -3 -20 -7 -39 -9 -43 -2 -3 -7 -30 -10 -60 -4 -29 -8 -57 -10 -60 -3 -4
-7 -27 -10 -51 -3 -25 -10 -60 -15 -78 -5 -18 -10 -35 -10 -37 0 -23 -84 -378
-98 -415 -3 -8 -7 -20 -8 -26 -6 -25 -88 -280 -94 -289 -3 -5 -6 -13 -7 -17
-1 -5 -2 -9 -4 -10 -1 -2 -3 -10 -5 -18 -4 -18 -83 -214 -115 -285 -33 -75
-113 -233 -149 -295 -18 -30 -35 -63 -38 -72 -3 -10 -9 -18 -14 -18 -5 0 -9
-5 -9 -10 0 -6 -16 -36 -35 -66 -19 -30 -35 -56 -35 -59 0 -2 -20 -36 -45 -74
-25 -38 -45 -74 -45 -80 0 -6 -3 -11 -8 -11 -4 0 -18 -20 -32 -45 -14 -25 -28
-45 -32 -45 -5 0 -8 -5 -8 -10 0 -12 -132 -213 -142 -218 -5 -2 -8 -8 -8 -14
0 -6 -14 -28 -31 -49 -17 -21 -28 -39 -24 -39 3 0 -1 -7 -10 -16 -8 -9 -34
-44 -57 -78 -87 -127 -291 -411 -300 -414 -4 -2 -8 -8 -8 -13 0 -6 -5 -15 -10
-22 -10 -11 -51 -67 -102 -138 -9 -13 -46 -63 -82 -112 -36 -48 -70 -96 -76
-106 -5 -11 -16 -25 -23 -33 -7 -7 -39 -51 -71 -98 -33 -47 -63 -86 -68 -88
-4 -2 -8 -9 -8 -16 0 -7 -8 -21 -18 -32 -10 -10 -27 -34 -37 -51 -11 -18 -23
-33 -27 -33 -4 0 -8 -5 -8 -11 0 -7 -16 -34 -35 -60 -19 -27 -35 -53 -35 -58
0 -5 -3 -11 -7 -13 -12 -5 -84 -118 -76 -118 5 0 3 -4 -3 -8 -10 -6 -130 -218
-161 -282 -36 -75 -73 -160 -73 -167 0 -4 -7 -21 -15 -37 -9 -16 -17 -39 -20
-50 -2 -12 -4 -22 -6 -23 -1 -2 -2 -6 -4 -10 -1 -5 -5 -15 -8 -23 -4 -8 -9
-26 -11 -40 -3 -14 -5 -25 -6 -25 -2 0 -5 -16 -13 -57 -3 -15 -8 -32 -11 -37
-3 -5 -8 -28 -11 -52 -3 -24 -7 -60 -10 -79 -24 -195 -25 -586 -1 -740 2 -14
8 -47 12 -75 4 -27 9 -57 11 -65 2 -8 5 -31 8 -50 5 -42 7 -52 35 -160 51
-200 109 -356 201 -545 98 -199 156 -295 266 -445 38 -52 36 -49 88 -115 115
-144 400 -425 433 -425 6 0 12 -4 12 -8 0 -5 14 -18 30 -31 l30 -22 -5 38 c-2
21 -7 63 -10 93 -4 30 -8 73 -11 95 -4 40 -11 125 -19 260 -10 164 -3 634 10
705 3 14 7 59 10 100 3 41 7 93 10 115 4 22 8 56 10 75 2 19 5 35 5 35 1 0 3
11 4 25 2 14 6 43 11 65 4 22 9 49 11 60 1 11 5 29 7 40 3 11 8 40 13 65 9 51
11 59 14 63 1 1 4 16 6 32 3 17 21 86 40 155 20 69 37 130 39 135 1 6 5 19 9
30 5 11 12 31 16 45 4 14 11 34 16 45 4 11 8 25 9 31 2 6 19 52 39 101 20 50
36 96 36 102 0 6 4 11 8 11 4 0 9 10 9 22 1 13 7 24 13 26 5 2 10 9 10 17 0
19 121 261 197 394 76 133 212 344 224 349 5 2 9 9 9 15 0 7 11 24 25 39 14
15 25 29 25 32 0 4 101 143 132 181 5 6 56 71 114 145 58 74 118 151 133 170
16 19 52 64 80 100 28 36 58 73 66 83 8 9 15 21 15 26 0 5 4 11 8 13 4 2 33
37 65 78 31 41 61 80 65 85 50 64 220 317 256 380 9 17 26 46 38 65 97 158
268 515 268 557 0 7 5 13 12 13 6 0 9 3 6 6 -3 3 5 33 19 67 21 53 34 90 58
177 20 70 56 211 60 235 3 17 10 53 15 80 16 81 19 103 27 189 9 96 9 469 -1
541 -4 28 -9 66 -11 85 -19 138 -89 435 -106 455 -5 5 -9 19 -9 31 0 13 -4 26
-10 29 -5 3 -10 14 -10 24 0 9 -9 36 -20 59 -11 22 -20 46 -20 52 0 5 -4 18
-10 28 -5 9 -31 65 -58 123 -64 138 -181 348 -222 396 -5 7 -10 17 -10 23 0 5
-4 10 -9 10 -5 0 -13 9 -16 20 -3 11 -12 26 -18 32 -7 7 -44 56 -84 108 -39
52 -102 128 -140 169 l-68 73 -1 -43z"/>
<path d="M8264 6272 c-1 -81 -14 -234 -28 -347 -3 -22 -7 -60 -10 -85 -3 -25
-8 -56 -11 -70 -2 -14 -7 -41 -9 -60 -3 -19 -8 -45 -10 -56 -2 -12 -7 -37 -10
-55 -6 -38 -13 -71 -21 -109 -4 -14 -8 -34 -10 -45 -3 -11 -7 -29 -10 -40 -2
-11 -9 -42 -15 -70 -6 -27 -14 -57 -17 -65 -3 -8 -8 -24 -10 -35 -3 -19 -21
-76 -65 -210 -11 -33 -23 -67 -26 -75 -3 -8 -6 -17 -6 -20 -1 -3 -7 -21 -15
-40 -68 -177 -163 -369 -264 -534 -37 -59 -67 -112 -67 -117 0 -5 -4 -9 -10
-9 -5 0 -10 -5 -10 -10 0 -6 -34 -60 -75 -121 -41 -61 -75 -115 -75 -120 0 -5
-4 -9 -8 -9 -4 0 -16 -15 -27 -32 -10 -18 -21 -35 -24 -38 -4 -3 -15 -18 -25
-35 -11 -16 -23 -34 -28 -40 -5 -5 -66 -86 -136 -180 -70 -93 -135 -179 -144
-190 -10 -11 -47 -58 -84 -105 -36 -47 -70 -86 -75 -88 -5 -2 -9 -8 -9 -14 0
-6 -9 -20 -20 -32 -11 -11 -41 -48 -68 -81 -26 -33 -55 -69 -64 -80 -70 -84
-332 -425 -388 -504 -103 -147 -252 -416 -264 -476 -3 -11 -12 -40 -21 -65 -9
-25 -18 -54 -21 -65 -2 -11 -8 -31 -14 -45 -8 -22 -56 -206 -66 -253 -2 -10
-5 -26 -8 -35 -3 -9 -7 -33 -10 -52 -3 -19 -7 -44 -10 -55 -4 -21 -18 -114
-22 -150 -1 -11 -5 -69 -9 -130 -3 -60 -8 -115 -10 -122 -2 -7 0 -15 5 -18 5
-3 5 -18 0 -34 -4 -16 -6 -32 -4 -34 3 -3 7 -31 9 -63 5 -71 13 -139 20 -176
11 -61 14 -74 24 -106 5 -18 11 -36 12 -40 1 -4 3 -11 4 -17 2 -5 6 -19 8 -30
18 -66 94 -237 109 -243 4 -2 8 -10 8 -18 0 -8 5 -14 10 -14 6 0 10 -5 10 -11
0 -6 12 -27 28 -47 15 -20 32 -43 37 -51 48 -65 219 -210 228 -194 2 5 14 40
27 78 12 39 31 91 41 118 11 26 28 71 40 100 11 28 24 61 29 72 5 11 30 67 55
125 50 115 239 485 255 500 3 3 24 37 47 76 45 76 107 173 121 190 5 5 15 20
21 32 21 40 255 358 281 382 3 3 39 46 80 95 41 50 82 99 92 110 10 11 26 29
35 41 20 24 128 146 158 180 11 12 47 52 80 90 33 37 74 82 90 100 17 17 62
67 100 110 39 43 82 92 97 109 15 16 38 42 50 56 13 14 37 41 53 60 57 64 152
177 210 249 19 25 43 55 53 67 101 127 267 388 270 427 0 5 5 12 11 15 8 5 51
91 55 111 1 3 14 37 28 75 15 39 36 102 47 140 24 88 38 155 56 285 4 25 8 59
11 75 26 188 26 608 -1 795 -13 88 -46 265 -55 290 -4 14 -14 53 -21 88 -7 34
-17 62 -22 62 -5 0 -7 9 -4 20 3 11 2 20 -2 20 -4 0 -8 6 -8 13 -1 18 -54 171
-64 182 -5 5 -9 15 -9 22 0 39 -207 440 -232 451 -5 2 -8 8 -8 14 0 10 -56 94
-77 116 -7 7 -13 16 -13 20 0 4 -13 21 -28 39 -15 17 -40 48 -57 68 -43 52
-56 65 -63 65 -4 0 -8 -30 -8 -68z"/>
</g>
</svg>
